<svg xmlns="http://www.w3.org/2000/svg" xmlns:xlink="http://www.w3.org/1999/xlink" width="45" height="45" viewBox="0 0 45 45"><defs><clipPath id="clip-path"><rect id="Rectangle_8033" data-name="Rectangle 8033" width="45" height="45" transform="translate(-17825 -17217)" fill="#fff" stroke="#707070" stroke-width="1"></rect></clipPath><clipPath id="clip-path-2"><rect id="Rectangle_8032" data-name="Rectangle 8032" width="38.847" height="42.793" fill="none"></rect></clipPath></defs><g id="Mask_Group_19669" data-name="Mask Group 19669" transform="translate(17825 17217)" clip-path="url(#clip-path)"><g id="Group_20291" data-name="Group 20291" transform="translate(-17821.924 -17215.896)"><g id="Group_20290" data-name="Group 20290" clip-path="url(#clip-path-2)"><path id="Path_39424" data-name="Path 39424" d="M9.151,42.793c-.558-.139-1.125-.251-1.674-.422a9.49,9.49,0,0,1-4.912-3.207,4.065,4.065,0,0,1-.853-2.438,13.661,13.661,0,0,0-.8-3.908,19.294,19.294,0,0,1-.869-3.9,9.389,9.389,0,0,1,1.054-5.2c.3-.612.611-1.216.922-1.822a4.172,4.172,0,0,0,.451-1.842,21.826,21.826,0,0,1,.494-4.891,7.989,7.989,0,0,1,.59-1.688,8.277,8.277,0,0,0,.833-3.033A2.66,2.66,0,0,1,6.7,7.826a2.555,2.555,0,0,1,2.389.907,7.37,7.37,0,0,1,1.549,3.1c.255.938.444,1.894.687,2.835a4.3,4.3,0,0,0,.773,1.647c.14-.057.073-.17.073-.251,0-1.211-.021-2.423-.012-3.634a2.9,2.9,0,0,0-.194-1.095c-.527-1.359-1.012-2.735-1.566-4.084a10.97,10.97,0,0,1-.489-3.2c-.036-.36-.048-.722-.074-1.083-.046-.627.054-.811.616-1.089a17.842,17.842,0,0,1,5.326-1.6,23.115,23.115,0,0,1,10.4.724,15.3,15.3,0,0,1,2.316.933.874.874,0,0,1,.512.953q-.092,1.061-.145,2.125a6.953,6.953,0,0,1-.507,2.435c-.2.471-.344.97-.56,1.436a10.386,10.386,0,0,0-1.019,5.45,14.146,14.146,0,0,1-.013,1.544c0,.116-.155.278.093.324a11.562,11.562,0,0,0,1.169-3.672,9.845,9.845,0,0,1,1.2-3.094,3.138,3.138,0,0,1,1.965-1.572A2.631,2.631,0,0,1,34.373,9.9a7.273,7.273,0,0,1,.151.989,6.33,6.33,0,0,0,.653,2.312,12.665,12.665,0,0,1,1.124,4.8,11.724,11.724,0,0,1,.062,1.5,5.626,5.626,0,0,0,.823,3.093,12.915,12.915,0,0,1,1.551,4.07,11.86,11.86,0,0,1-.455,4.989A34.554,34.554,0,0,0,37.271,35.4a8.163,8.163,0,0,0-.119,1.162,4.446,4.446,0,0,1-1.4,3.244,10.367,10.367,0,0,1-5.836,2.9c-.075.012-.173-.024-.208.087H27.786a5.149,5.149,0,0,1-3.064-1.528,9.12,9.12,0,0,0-5.063-2.183,4.967,4.967,0,0,0-1.93.287,10.2,10.2,0,0,0-4.171,2.373A3.667,3.667,0,0,1,11.1,42.75c-.068,0-.14-.012-.2.043h-.167a.453.453,0,0,0-.418,0Z" transform="translate(0.001 0)" fill="#666"></path><path id="Path_39425" data-name="Path 39425" d="M92.417,382.438a.28.28,0,0,1,.418,0Z" transform="translate(-82.096 -339.645)" fill="#793a57"></path><path id="Path_39426" data-name="Path 39426" d="M239.137,142.529c-.044.066-.088.231-.153.026a.348.348,0,0,1,.06-.35c.061.1-.056.25.093.324" transform="translate(-212.276 -126.324)" fill="#844a65"></path><path id="Path_39427" data-name="Path 39427" d="M14.573,205.71c-.363-1.478-.867-2.834-1.169-4.252a8.26,8.26,0,0,1,.685-5.555c.34-.686.657-1.385,1.035-2.049a2.081,2.081,0,0,1,1.649-.83,2.29,2.29,0,0,1,.5-.005c.874.037,1.04.207,1.1,1.072.029.4.073.8.135,1.2.031.2,0,.3-.213.357a3.4,3.4,0,0,0-2.4,2.341,8.289,8.289,0,0,0-.535,3.022.692.692,0,0,0,.716.79c.445,0,.7-.281.718-.79a7.467,7.467,0,0,1,.512-2.646,1.984,1.984,0,0,1,1.166-1.247,18.407,18.407,0,0,0,.767,4.9.705.705,0,0,0,.757.585.678.678,0,0,0,.667-.634,1.074,1.074,0,0,0-.043-.408,23.167,23.167,0,0,1-.631-3.143,1.437,1.437,0,0,1,.192-.994,6.178,6.178,0,0,1,2.582-2.24,8.762,8.762,0,0,1,2.031-.746c.136-.031.267-.082.321.122a14.431,14.431,0,0,1,.708,2.909,1.051,1.051,0,0,1-.179.66,5.576,5.576,0,0,0-.675,3.858.713.713,0,0,0,.77.614.74.74,0,0,0,.649-.793,6.9,6.9,0,0,1,.165-2.233c.2-.666.242-.7.911-.7,2.5,0,5.01.017,7.514-.012a.675.675,0,0,1,.743.553,5.781,5.781,0,0,1,.219,2.022c0,.153-.018.307-.009.459a.746.746,0,0,0,.655.705.712.712,0,0,0,.76-.577,5.513,5.513,0,0,0-.471-3.535,2.653,2.653,0,0,1-.089-1.62,12.663,12.663,0,0,1,.457-2.2c.046-.184.111-.279.306-.227a7.571,7.571,0,0,1,4.524,2.849,2.225,2.225,0,0,1,.17,1.765,20.022,20.022,0,0,1-.554,2.564.727.727,0,0,0,.234.826.678.678,0,0,0,.782.077.692.692,0,0,0,.354-.444,17.734,17.734,0,0,0,.782-4.942,1.33,1.33,0,0,1,.858.653,5.162,5.162,0,0,1,.749,2.319c.044.344.052.693.084,1.039a.68.68,0,0,0,.724.653.651.651,0,0,0,.694-.634,7.117,7.117,0,0,0-1.2-4.387,2.749,2.749,0,0,0-1.626-1.095c-.293-.069-.362-.181-.3-.486A14.316,14.316,0,0,0,44,193.583a.41.41,0,0,1,.321-.415,2.9,2.9,0,0,1,2.66.4.419.419,0,0,1,.143.147,20.165,20.165,0,0,1,1.838,4.238,9.5,9.5,0,0,1-.3,4.572c-.266,1.049-.607,2.08-.926,3.159a5.392,5.392,0,0,0-1.382-.736,4.784,4.784,0,0,0-1.434-.233c-.53.007-.812.231-.829.671-.017.477.247.733.783.766a3.126,3.126,0,0,1,1.178.24c1.484.715,1.651,1.36,1.134,2.766a4.094,4.094,0,0,1-1.528,1.789,8.958,8.958,0,0,1-5.012,1.852,3.674,3.674,0,0,1-2.809-.944,10.721,10.721,0,0,0-4.956-2.628,2.906,2.906,0,0,1-.292-.105,5.736,5.736,0,0,0,.863-2.124,3.641,3.641,0,0,0-.378-2.264.732.732,0,0,0-.982-.379.708.708,0,0,0-.323.993,3.184,3.184,0,0,1-.836,3.505c-.177.188-.413.158-.621.193a11.111,11.111,0,0,0-5.852,2.818,3.8,3.8,0,0,1-3.06.9,8.842,8.842,0,0,1-5.267-2.267,3.444,3.444,0,0,1-1.266-2.45,1.406,1.406,0,0,1,.628-1.2,3.092,3.092,0,0,1,1.965-.7.72.72,0,1,0-.034-1.43,5.4,5.4,0,0,0-.747.056,4.3,4.3,0,0,0-2.107.941" transform="translate(-11.729 -171.451)" fill="#fff"></path><path id="Path_39428" data-name="Path 39428" d="M109.281,12.995a21.307,21.307,0,0,1,7.828,1.408c.388.154.539.344.463.769a7.168,7.168,0,0,0-.1,1.288c.006,1.443-.732,2.664-1.163,3.975-.165.5-.368.99-.561,1.481-.045.115-.049.282-.275.192a13.439,13.439,0,0,0-3.87-.755,23.911,23.911,0,0,0-6.93.387,4.92,4.92,0,0,0-1.114.341c-.21.1-.281.039-.356-.163q-.744-2.014-1.513-4.019a5.815,5.815,0,0,1-.2-1.44c-.058-.468-.049-.945-.1-1.414a.489.489,0,0,1,.361-.59,19.425,19.425,0,0,1,4.576-1.232,27.934,27.934,0,0,1,2.956-.226" transform="translate(-90.059 -11.544)" fill="#fff"></path><path id="Path_39429" data-name="Path 39429" d="M128.344,154.92c1.8,0,3.592.012,5.388-.01.373,0,.428.111.4.447-.06.7-.415,1.321-.524,2.01-.274,1.73-.758,3.418-1.087,5.137a7.076,7.076,0,0,0-.106.869c-.012.182-.085.229-.257.228q-3.738-.007-7.476,0c-.151,0-.278-.005-.291-.2a14.806,14.806,0,0,0-.771-3.15c-.344-1.176-.47-2.4-.814-3.574a7.75,7.75,0,0,1-.24-1.389c-.033-.307.059-.371.35-.369,1.81.012,3.62.006,5.43.006" transform="translate(-108.871 -137.61)" fill="#fefefe"></path><path id="Path_39430" data-name="Path 39430" d="M127.645,106.85c-1.81,0-3.621-.01-5.431.009-.338,0-.42-.1-.417-.42.01-1,.006-2.006-.023-3.007a.508.508,0,0,1,.386-.554,8.837,8.837,0,0,1,1.818-.448.327.327,0,0,1,.408.225,4.347,4.347,0,0,0,3.157,2.224,1.037,1.037,0,0,0,.572-.073,4.222,4.222,0,0,0,2.858-2.237.211.211,0,0,1,.264-.136,7.3,7.3,0,0,1,1.965.531.521.521,0,0,1,.325.528c-.013,1-.024,2.005-.011,3.008,0,.312-.127.357-.4.356-1.824-.01-3.649-.005-5.473-.005" transform="translate(-108.174 -90.983)" fill="#fefefe"></path><path id="Path_39431" data-name="Path 39431" d="M71.613,152.908a22.482,22.482,0,0,1-.267-4.262,3.974,3.974,0,0,1,1.029-2.744,2.9,2.9,0,0,1,1.024-.625.283.283,0,0,1,.425.178,3.85,3.85,0,0,0,1.031,1.349,3.392,3.392,0,0,1,1.126,1.947c.105.517.2,1.035.318,1.55.038.168.03.242-.165.287a9.851,9.851,0,0,0-4.522,2.321" transform="translate(-63.357 -129.02)" fill="#fff"></path><path id="Path_39432" data-name="Path 39432" d="M236.807,153a9.928,9.928,0,0,0-4.457-2.322c-.184-.046-.261-.088-.22-.3a18.319,18.319,0,0,1,.454-2.073,2.93,2.93,0,0,1,.9-1.335,4.2,4.2,0,0,0,1.1-1.4c.132-.284.278-.274.522-.18a2.815,2.815,0,0,1,1.719,1.915,9.5,9.5,0,0,1,.224,3.436c-.042.731-.151,1.459-.237,2.257" transform="translate(-206.197 -129.104)" fill="#fff"></path><path id="Path_39433" data-name="Path 39433" d="M36.2,124.674a2.428,2.428,0,0,1,2.347,2.244.386.386,0,0,1-.05.275,6.647,6.647,0,0,0-.964,3.446c-.016.293-.1.332-.375.283a4.333,4.333,0,0,0-1.941.069c-.189.053-.295.057-.279-.183a23.149,23.149,0,0,1,.492-4.627c.12-.441.291-.868.442-1.3.055-.157.141-.277.328-.207" transform="translate(-31.038 -110.732)" fill="#fff"></path><path id="Path_39434" data-name="Path 39434" d="M282.917,124.768c.244-.069.335.107.421.316a10.577,10.577,0,0,1,.722,3.108c.076.856.1,1.717.161,2.575.021.3-.032.392-.359.3a3.964,3.964,0,0,0-1.934-.041c-.221.047-.292-.015-.3-.241a6.794,6.794,0,0,0-.977-3.525.308.308,0,0,1-.048-.194,2.443,2.443,0,0,1,2.318-2.295" transform="translate(-249.261 -110.82)" fill="#fff"></path><path id="Path_39435" data-name="Path 39435" d="M49.714,85.874c.187-.641.194-1.313.319-1.966a1.13,1.13,0,0,1,.875-1,1.253,1.253,0,0,1,1.329.49,7.534,7.534,0,0,1,1.293,2.952c.151.591.251,1.194.4,1.786.053.212.006.3-.2.366-.262.083-.541.311-.762.26-.161-.037-.237-.428-.357-.658A3.671,3.671,0,0,0,49.99,86.17c-.178-.039-.345-.043-.275-.3" transform="translate(-44.148 -73.615)" fill="#fff"></path><path id="Path_39436" data-name="Path 39436" d="M263.422,82.956a1.129,1.129,0,0,1,1.185.883c.159.7.162,1.433.346,2.133.047.179-.045.232-.215.266a3.7,3.7,0,0,0-2.9,2.414c-.075.194-.131.256-.348.156-.783-.357-.794-.349-.612-1.186a12.258,12.258,0,0,1,1.064-3.4,4.23,4.23,0,0,1,.619-.885,1.1,1.1,0,0,1,.865-.378" transform="translate(-231.655 -73.69)" fill="#fff"></path><path id="Path_39437" data-name="Path 39437" d="M161.542,100.086a2.5,2.5,0,0,1-1.875,1.139,2.467,2.467,0,0,1-1.869-1.136,21.107,21.107,0,0,1,3.744,0" transform="translate(-140.175 -88.836)" fill="#fdfdfd"></path><path id="Path_39438" data-name="Path 39438" d="M88.778,301.327a4.055,4.055,0,0,1,2.273-3.55.674.674,0,0,1,.915.24.659.659,0,0,1-.13.932c-.25.219-.539.393-.785.615a2.186,2.186,0,0,0-.781,1.969,1.6,1.6,0,0,1,.011.291.64.64,0,0,1-.551.64.66.66,0,0,1-.793-.383,3.555,3.555,0,0,1-.158-.753" transform="translate(-78.863 -264.44)" fill="#666"></path><path id="Path_39439" data-name="Path 39439" d="M232.729,301.252c0,.73-.035.755-.736.54a1,1,0,0,0-.2-.063c-.445-.037-.56-.264-.566-.71a2.267,2.267,0,0,0-1.062-1.71c-.163-.129-.352-.229-.5-.369a.648.648,0,0,1-.13-.9.671.671,0,0,1,.906-.269,4.047,4.047,0,0,1,2.289,3.481" transform="translate(-203.788 -264.444)" fill="#666"></path><path id="Path_39440" data-name="Path 39440" d="M118.425,35.042a.675.675,0,0,1,.718.514c.26.861.514,1.725.751,2.593a.729.729,0,1,1-1.391.411c-.257-.848-.508-1.7-.737-2.553a.7.7,0,0,1,.659-.964" transform="translate(-104.581 -31.128)" fill="#fefefe"></path></g></g></g></svg>