<svg xmlns="http://www.w3.org/2000/svg" xmlns:xlink="http://www.w3.org/1999/xlink" width="45" height="45" viewBox="0 0 45 45"><defs><clipPath id="clip-path"><rect id="Rectangle_8031" data-name="Rectangle 8031" width="45" height="45" transform="translate(-17819 -17052)" fill="#fff" stroke="#707070" stroke-width="1"></rect></clipPath><clipPath id="clip-path-2"><rect id="Rectangle_8030" data-name="Rectangle 8030" width="41.981" height="43.96" fill="none"></rect></clipPath></defs><g id="Mask_Group_19668" data-name="Mask Group 19668" transform="translate(17819 17052)" clip-path="url(#clip-path)"><g id="Group_20289" data-name="Group 20289" transform="translate(-17817.49 -17050.961)"><g id="Group_20288" data-name="Group 20288" clip-path="url(#clip-path-2)"><path id="Path_39419" data-name="Path 39419" d="M20.855,43.96c-.935,0-1.869,0-2.8,0-.7,0-.93-.228-.934-.916-.006-.954-.029-1.908.009-2.86a1.012,1.012,0,0,0-.619-1.07,5.567,5.567,0,0,1-3.052-3.792,4.88,4.88,0,0,1,2.083-5.094,1.079,1.079,0,0,0,.447-1.418,18.334,18.334,0,0,1-.43-7.481c.132-1.27.354-2.534.4-3.807a3.717,3.717,0,0,0-4.036-3.9c-.336.013-.294.2-.316.407a16.086,16.086,0,0,0,.171,3.818,9.587,9.587,0,0,1-.023,3.749,3.807,3.807,0,0,1-5.023,2.721,6.556,6.556,0,0,1-3.147-2.286C-.424,16.846-1.1,11.273,1.716,5.321a11.924,11.924,0,0,1,2.746-3.9A4.552,4.552,0,0,1,9.2.26a4.316,4.316,0,0,1,2.833,3.764,20.085,20.085,0,0,1,.2,4.62c-.028.448.057.586.5.628a8.815,8.815,0,0,1,5.422,2.552,7.578,7.578,0,0,1,2.082,6.347c-.106,1.563-.494,3.084-.684,4.634a10.441,10.441,0,0,0,.046,3.471c.012.056.015.114.03.169.242.921.706,1.393,1.364,1.389s1.132-.481,1.343-1.411a12.716,12.716,0,0,0-.143-5.052,19.985,19.985,0,0,1-.482-4.708c.225-3.55,2.262-5.687,5.433-6.924a6.856,6.856,0,0,1,2.166-.481c.356-.017.457-.13.437-.521a19.023,19.023,0,0,1,.282-5.124,4.265,4.265,0,0,1,7.105-2.509,11.773,11.773,0,0,1,3.35,4.7c2.548,5.761,1.786,11.129-1.99,16.113a7.462,7.462,0,0,1-2.126,1.889c-2.993,1.8-6.142.126-6.33-3.358a19.239,19.239,0,0,1,.278-3.529,15.287,15.287,0,0,0,.056-2.968c-.019-.295-.147-.349-.4-.318a5.823,5.823,0,0,0-2.288.656c-1.413.824-1.909,2.129-1.627,4.11a40.518,40.518,0,0,1,.533,6.147,14.508,14.508,0,0,1-.7,4.612.642.642,0,0,0,.286.865,5.851,5.851,0,0,1,1.253,1.164,4.793,4.793,0,0,1-.181,6.549,6.764,6.764,0,0,1-2.155,1.577.713.713,0,0,0-.461.757c.021.972.01,1.945.006,2.918,0,.763-.213.968-.993.969-.935,0-1.869,0-2.8,0" transform="translate(0 0)" fill="#666"></path><path id="Path_39420" data-name="Path 39420" d="M86.759,101.158c-.648,0-1.3-.017-1.944.007-.343.013-.47-.078-.455-.442.029-.723-.015-1.45.014-2.173A1.938,1.938,0,0,0,83.2,96.573a5.839,5.839,0,0,1-.961-.614,3.647,3.647,0,0,1-.024-6.074c.195-.153.411-.282.589-.452a1.622,1.622,0,0,0,.547-1.753c-1.076-3.2-.74-6.435-.313-9.676a10.516,10.516,0,0,0,.131-2.96,4.882,4.882,0,0,0-4.388-4.1c-1.1-.163-1.086-.162-.938-1.273.057-.425.2-.546.654-.487a7.915,7.915,0,0,1,4.439,2.046,6.242,6.242,0,0,1,1.819,5.427c-.111,1.562-.512,3.08-.691,4.632a10.514,10.514,0,0,0,.2,4.309c.525,1.733,1.943,2.565,3.439,2.052a2.731,2.731,0,0,0,1.687-1.819,10.089,10.089,0,0,0,.283-4.522c-.155-1.478-.511-2.924-.67-4.4a6.686,6.686,0,0,1,6.446-7.735c.126-.008.3-.088.341.092a12.77,12.77,0,0,1,.219,1.408c.021.234-.22.148-.351.166a7.627,7.627,0,0,0-2.67.775,4.469,4.469,0,0,0-2.462,3.975,31.182,31.182,0,0,0,.411,4.319,17.992,17.992,0,0,1-.506,7.581,1.729,1.729,0,0,0,.7,2.11,6.265,6.265,0,0,1,1.208,1.128,3.423,3.423,0,0,1-.188,4.635,5.773,5.773,0,0,1-1.84,1.332,1.862,1.862,0,0,0-1.153,1.866c.015.686-.021,1.374.012,2.059.019.408-.067.58-.521.548-.626-.043-1.258-.011-1.887-.011" transform="translate(-65.88 -58.572)" fill="#fff"></path><path id="Path_39421" data-name="Path 39421" d="M206.526,21.059a1.565,1.565,0,0,1,1.677.037,8.841,8.841,0,0,1,1.822,1.55c.307.355.647.557,1.082.222.351-.27.32-.7-.063-1.147a9.086,9.086,0,0,0-2.038-1.74,9.293,9.293,0,0,0,1.794-1.947c.343-.5.338-.907-.049-1.144-.46-.282-.794-.062-1.06.328a5.181,5.181,0,0,1-3.1,2.37,14.68,14.68,0,0,1-2.616.2c-.4.021-.343-.272-.387-.493-.2-1.01-.2-1,.781-.945a5.371,5.371,0,0,0,4.436-2.082.612.612,0,0,0-.022-.921.648.648,0,0,0-.973.009,9.613,9.613,0,0,1-1.355,1.136c-.348.228-.532.169-.662-.226a4.91,4.91,0,0,1-.239-1.054c-.045-.453-.273-.776-.775-.718-.468.053-.6.387-.588.826a3.9,3.9,0,0,0,.287,1.334c.114.283.011.346-.245.312a1.037,1.037,0,0,0-.281-.043c-.615.1-.735-.265-.744-.759a18.836,18.836,0,0,1,.32-4.779,2.87,2.87,0,0,1,4.706-1.728,7.72,7.72,0,0,1,2.1,2.389,14.164,14.164,0,0,1,2.335,8.569,13.174,13.174,0,0,1-4.186,9.113,3.654,3.654,0,0,1-2.134,1.016c-1.63.148-2.714-.91-2.817-2.725a17.177,17.177,0,0,1,.239-3.131,15.217,15.217,0,0,0,.109-3.135c-.015-.188-.148-.456.1-.565a.731.731,0,0,1,.707.112,5.48,5.48,0,0,1,1.376,1.36c.187.264.352.544.515.823.233.4.554.614.99.36s.4-.645.194-1.047a8.259,8.259,0,0,0-1.236-1.743" transform="translate(-172.112 -7.614)" fill="#fff"></path><path id="Path_39422" data-name="Path 39422" d="M12.722,20.106a8.6,8.6,0,0,0-1.9,1.655c-.385.444-.417.875-.067,1.146.434.336.775.136,1.082-.219a8.543,8.543,0,0,1,1.872-1.578,1.572,1.572,0,0,1,1.629-.014,8.421,8.421,0,0,0-1.21,1.7c-.26.495-.2.894.161,1.106s.75.079,1.02-.418a6.3,6.3,0,0,1,1.546-1.892,2.01,2.01,0,0,1,.526-.336c.458-.176.66-.043.608.432a23.19,23.19,0,0,0,.3,4.952,7.1,7.1,0,0,1-.057,2.106,2.444,2.444,0,0,1-3.272,1.934A5.357,5.357,0,0,1,12.59,29.03a13.854,13.854,0,0,1-1.869-15.49,10.353,10.353,0,0,1,2.816-3.766A3.136,3.136,0,0,1,16,9.076a2.711,2.711,0,0,1,2.309,2.243,16.909,16.909,0,0,1,.294,5.229c-.013.16.024.387-.233.377-.34-.013-.679.182-1.008.032-.1-.044.014-.208.051-.312a4.073,4.073,0,0,0,.263-1.4.677.677,0,0,0-1.349-.107,4.987,4.987,0,0,1-.3,1.273c-.112.271-.25.339-.519.178a6.572,6.572,0,0,1-1.291-1.033c-.413-.418-.837-.482-1.142-.175-.326.327-.273.667.174,1.136A5.145,5.145,0,0,0,18,18.331c.328-.054.415.025.368.385-.143,1.1-.124,1.06-1.223,1.1a5.279,5.279,0,0,1-4.976-2.554c-.253-.4-.6-.611-1.058-.33-.388.237-.4.654-.047,1.141.258.353.537.692.814,1.031s.54.644.844,1" transform="translate(-7.762 -7.655)" fill="#fff"></path><path id="Path_39423" data-name="Path 39423" d="M118.435,204.973a4.95,4.95,0,0,1,2.819.866c.464.314.58.7.307,1.051-.306.391-.659.339-1.056.1a4.053,4.053,0,0,0-4.47.012c-.4.242-.771.276-1.046-.135s-.091-.751.291-1.01a5.321,5.321,0,0,1,3.155-.885" transform="translate(-97.287 -173.621)" fill="#666"></path></g></g></g></svg>