<svg xmlns="http://www.w3.org/2000/svg" xmlns:xlink="http://www.w3.org/1999/xlink" width="45" height="45" viewBox="0 0 45 45"><defs><clipPath id="clip-path"><rect id="Rectangle_8010" data-name="Rectangle 8010" width="45" height="45" transform="translate(-18055 -17355)" fill="#fff" stroke="#707070" stroke-width="1"></rect></clipPath></defs><g id="Mask_Group_19660" data-name="Mask Group 19660" transform="translate(18055 17355)" clip-path="url(#clip-path)"><g id="Group_20547" data-name="Group 20547" transform="translate(-17254.252 -17968.807)"><path id="Path_41612" data-name="Path 41612" d="M-717.743,637.227a23.845,23.845,0,0,0,2.725-4.71,2.13,2.13,0,0,1,1.011-1.05,16.55,16.55,0,0,0,4.314-3.009,7.736,7.736,0,0,0,.379-11.107,7.392,7.392,0,0,0-12.481,2.742,1.223,1.223,0,0,1-.767.952,1.821,1.821,0,0,0-.777.579c-.2.242-.317.2-.544.021a2.336,2.336,0,0,0-3.761,1.345c-.089.4-.114.813-.173,1.249a4.4,4.4,0,0,0-2.736-.437,4.652,4.652,0,0,0-3.481,2.988.581.581,0,0,1-.6.423,2.269,2.269,0,0,0-2.283,1.69,2.372,2.372,0,0,0,1.059,2.693,3.673,3.673,0,0,0,3.629.417,10.954,10.954,0,0,0-.106,2.077,6.774,6.774,0,0,0,2.462,5.256,8.125,8.125,0,0,0,6.628,1.346A8.752,8.752,0,0,0-717.743,637.227Zm-9.55,1.876a4.759,4.759,0,0,1-3.534-4.238,11.982,11.982,0,0,1,.83-5.871c.054-.153.119-.3.157-.46a.688.688,0,0,0-.436-.857.7.7,0,0,0-.886.387c-.133.3-.223.611-.356.907a7.048,7.048,0,0,1-.466.9,2.051,2.051,0,0,1-3.212.448.939.939,0,0,1-.342-1.067.871.871,0,0,1,.88-.617,6.942,6.942,0,0,1,.754.02c.521.032.736-.094.9-.59a5.44,5.44,0,0,1,.953-1.838,2.764,2.764,0,0,1,4.774.709,6.721,6.721,0,0,1,.222,3.888c-.024.131-.059.26-.078.392a.694.694,0,0,0,.512.814.685.685,0,0,0,.858-.508,8.576,8.576,0,0,0,.3-2.071,7.225,7.225,0,0,0,2.678,1.5,6.957,6.957,0,0,0,2.193.287c.547-.015.882-.3.863-.737-.018-.419-.352-.689-.873-.685a5.44,5.44,0,0,1-4.915-2.658,5.273,5.273,0,0,1-.791-3.566c.088-.707.493-1.109,1.068-1.036s.893.546.8,1.254a3.51,3.51,0,0,0,1.082,3.053,3.286,3.286,0,0,0,.778.586.711.711,0,0,0,1.006-.221.69.69,0,0,0-.277-.99,2.232,2.232,0,0,1-1.159-1.964,2.136,2.136,0,0,1,1.607-2.179,1,1,0,0,0,.787-.846,5.649,5.649,0,0,1,4.641-4.731A5.844,5.844,0,0,1-709.79,619a6.212,6.212,0,0,1-.57,8.1,12.034,12.034,0,0,1-3.831,2.839,4.635,4.635,0,0,0-2.377,2.483,16.734,16.734,0,0,1-2.538,4.252A7.5,7.5,0,0,1-727.293,639.1Z" transform="translate(-54.476 0)" fill="#666"></path><path id="Path_41613" data-name="Path 41613" d="M-549.831,728.822c-.042-.827-.009-1.659-.009-2.489,0-1.082-.009-2.163,0-3.244a1.452,1.452,0,0,0-.566-1.2,2.7,2.7,0,0,0-1.676-.614,2.941,2.941,0,0,0-2.82,2.174,13,13,0,0,0-.61,3.665.727.727,0,0,0,.677.791.693.693,0,0,0,.735-.713c.056-.56.094-1.122.174-1.679a5.276,5.276,0,0,1,.62-2.111,1.31,1.31,0,0,1,1.633-.625.556.556,0,0,1,.428.617c-.023,1.985-.02,3.97-.018,5.956a1.567,1.567,0,0,1-.144.639c-1,2.318-2.006,4.634-2.984,6.961a5.543,5.543,0,0,1-1.744,2.253c-1.539,1.2-3.074,2.414-4.62,3.609a1.115,1.115,0,0,0-.48.979c.019,1.763.007,3.526.008,5.289,0,.589.272.922.73.909.442-.012.691-.333.692-.9,0-1.615.007-3.23-.006-4.845a.65.65,0,0,1,.288-.587q2.214-1.711,4.407-3.45a6.39,6.39,0,0,0,1.959-2.536c.949-2.227,1.894-4.457,2.877-6.669A4.664,4.664,0,0,0-549.831,728.822Z" transform="translate(-207.185 -92.355)" fill="#666"></path><path id="Path_41614" data-name="Path 41614" d="M-788.878,742.72q-2.342-1.8-4.654-3.638a5.059,5.059,0,0,1-1.58-2.049c-.668-1.609-1.3-3.238-2.08-4.794a9.489,9.489,0,0,1-1.107-5.371,4.577,4.577,0,0,0,0-.489h-.008q0-1.444,0-2.889c0-.573.154-.751.73-.816a1.239,1.239,0,0,1,1.114.426,2.784,2.784,0,0,1,.575,1.137,15.4,15.4,0,0,1,.421,2.85c.048.539.32.825.75.791a.771.771,0,0,0,.663-.934c-.044-.517-.082-1.034-.156-1.547a5.965,5.965,0,0,0-1.135-3.17,2.711,2.711,0,0,0-3.607-.521,1.575,1.575,0,0,0-.771,1.407c.018,2.118.011,4.237,0,6.356a2.186,2.186,0,0,0,.19.9c1.038,2.4,2.08,4.795,3.1,7.2a6.559,6.559,0,0,0,2.033,2.642q2.165,1.7,4.338,3.393a.691.691,0,0,1,.314.621c-.016,1.615-.005,3.23-.01,4.845a.822.822,0,0,0,.293.749.657.657,0,0,0,.711.075.75.75,0,0,0,.423-.762c0-1.763-.018-3.526.008-5.289A1.264,1.264,0,0,0-788.878,742.72Z" transform="translate(0 -92.322)" fill="#666"></path><path id="Path_41615" data-name="Path 41615" d="M-617.02,788.549c.09-.076.171-.164.255-.248l4.564-4.553c.462-.461.931-.913,1.382-1.384a.682.682,0,0,0,.068-1.029,3.962,3.962,0,0,0-3.31-1.377,4.946,4.946,0,0,0-3,1.474c-1.045.987-2.051,2.015-3.067,3.031a1.828,1.828,0,0,1-.7.435,7.834,7.834,0,0,0-5.5,6.619,37.631,37.631,0,0,0-.077,4.242c0,1.666,0,3.044,0,4.422a.709.709,0,0,0,.726.778.72.72,0,0,0,.693-.769c0-.1,0-.208,0-.311q0-3.645,0-7.291a6.463,6.463,0,0,1,1.016-3.575,6.169,6.169,0,0,1,3.589-2.735,2.785,2.785,0,0,0,1.281-.79q1.446-1.447,2.9-2.884a4.631,4.631,0,0,1,1.413-.977,2.392,2.392,0,0,1,2.012-.012c.333.148.426.243.111.552-1.714,1.681-3.405,3.385-5.1,5.081-.094.094-.193.185-.279.286a.747.747,0,0,0-.007,1A.7.7,0,0,0-617.02,788.549Z" transform="translate(-150.543 -143.319)" fill="#666"></path><path id="Path_41616" data-name="Path 41616" d="M-752.728,792.651a7.986,7.986,0,0,0-5.646-7.713,1.485,1.485,0,0,1-.628-.388c-.877-.883-1.761-1.759-2.642-2.638a7.943,7.943,0,0,0-1.554-1.248,3.924,3.924,0,0,0-5,.566c-.482.457-.489.8-.009,1.277q2.986,2.986,5.976,5.966c.411.41.8.45,1.125.13s.272-.73-.116-1.127c-.269-.275-.545-.544-.817-.817l-4.728-4.754a2.311,2.311,0,0,1,1.96-.384,4.449,4.449,0,0,1,2.041,1.281c.8.789,1.6,1.587,2.393,2.384a4.7,4.7,0,0,0,1.869,1.244,6.413,6.413,0,0,1,4.355,6.217c.007,1.763,0,3.526,0,5.289,0,.785-.009,1.57,0,2.355a.7.7,0,0,0,.727.731.715.715,0,0,0,.69-.726c.006-.089,0-.178,0-.267Q-752.728,796.34-752.728,792.651Z" transform="translate(-27.065 -143.382)" fill="#666"></path></g></g></svg>