<svg xmlns="http://www.w3.org/2000/svg" xmlns:xlink="http://www.w3.org/1999/xlink" width="45" height="45" viewBox="0 0 45 45"><defs><clipPath id="clip-path"><rect id="Rectangle_8012" data-name="Rectangle 8012" width="45" height="45" transform="translate(-18024 -17114)" fill="#fff" stroke="#707070" stroke-width="1"></rect></clipPath><clipPath id="clip-path-2"><rect id="Rectangle_8011" data-name="Rectangle 8011" width="43.42" height="44.516" fill="none"></rect></clipPath></defs><g id="Mask_Group_19662" data-name="Mask Group 19662" transform="translate(18024 17114)" clip-path="url(#clip-path)"><g id="Group_20280" data-name="Group 20280" transform="translate(-18023.211 -17114)"><g id="Group_20279" data-name="Group 20279" clip-path="url(#clip-path-2)"><path id="Path_39339" data-name="Path 39339" d="M20.148,0a1.138,1.138,0,0,1,.694,1.22c-.028.709,0,1.42-.009,2.13,0,.171.009.278.228.33s.305-.022.387-.2Q22.015,2.236,22.6,1A.959.959,0,0,1,24.048.473c.578.264,1.156.529,1.726.808a.913.913,0,0,1,.489,1.358c-.386.855-.776,1.71-1.189,2.552a.338.338,0,0,0,.113.5,7.533,7.533,0,0,1,1.438,1.5.589.589,0,0,0,.543.265c1.13-.012,2.26-.008,3.391,0,.545,0,.806.2.819.621.013.434-.271.68-.816.681q-4.086,0-8.172,0c-.505,0-.806-.253-.81-.652s.286-.647.8-.65c.884,0,1.767,0,2.738,0a4.524,4.524,0,0,0-.873-.861c-.779-.645-.841-.9-.411-1.82.33-.706.656-1.415,1-2.116.1-.215.123-.331-.137-.458-.986-.479-.981-.49-1.452.518-.263.562-.521,1.128-.791,1.687a1,1,0,0,1-1.271.632c-1.337-.295-1.724-.183-1.649-2.008.02-.492,0-.985.007-1.478,0-.186-.048-.275-.242-.246a.361.361,0,0,1-.043,0c-.36.008-.825-.116-1.051.063s-.061.675-.073,1.03c-.015.434.009.87-.007,1.3a1.033,1.033,0,0,1-1.053,1.088c-.359.034-.717.1-1.073.156a1.066,1.066,0,0,1-1.332-.681c-.316-.665-.634-1.33-.933-2-.105-.236-.195-.356-.466-.193-.294.177-.763.242-.88.487s.221.611.359.923c.194.435.4.864.6,1.3a1.039,1.039,0,0,1-.384,1.473,8.038,8.038,0,0,0-3.375,5.265A6.5,6.5,0,0,0,9.462,13.2a15.081,15.081,0,0,1,2.722-.989c.2-.049.152-.23.186-.355a5.625,5.625,0,0,1,4.677-4.331,10.792,10.792,0,0,1,2.125-.064.6.6,0,0,1,.652.609.629.629,0,0,1-.637.679c-.477.027-.957-.005-1.434.02a4.306,4.306,0,0,0-3.776,2.448,1.658,1.658,0,0,0-.233.667,23.658,23.658,0,0,1,4.47-.25,20.868,20.868,0,0,1,3.236.339.44.44,0,0,0,.529-.224,2.765,2.765,0,0,1,2.376-1.3c2.086-.022,4.173-.01,6.26-.006.48,0,.758.249.764.646.006.419-.27.652-.786.656q-.891.006-1.782,0c-.177,0-.294,0-.268.25.1.953.035,1.911.052,2.867a.652.652,0,0,0,.091.454,16.063,16.063,0,0,1,2.6,5.346A33.7,33.7,0,0,1,32.459,25.5c.045.267.124.4.4.345A1.515,1.515,0,0,1,34.7,26.937a22.094,22.094,0,0,0,1.1,2.019c.184-1.034.354-1.972.518-2.91.213-1.211.421-2.423.634-3.634a2,2,0,0,1,.081-.338.647.647,0,0,1,1.2-.1c.646,1.281,1.471,2.454,2.2,3.684a.474.474,0,0,0,.483.267c.564-.018,1.13-.011,1.7,0,.5.006.807.268.8.662s-.3.637-.811.64c-.739,0-1.478-.011-2.217.006a.821.821,0,0,1-.782-.439c-.522-.848-1.059-1.687-1.644-2.616-.12.656-.229,1.227-.328,1.8-.273,1.582-.539,3.166-.815,4.748a1.252,1.252,0,0,1-.176.575.654.654,0,0,1-1.132-.156c-.67-1.2-1.324-2.405-1.989-3.606-.107-.192-.168-.417-.491-.4-.273.016-.332.074-.3.35a28.3,28.3,0,0,1,.117,5.077,13.919,13.919,0,0,1-1.138,4.917,4.141,4.141,0,0,1-2.866,2.5c-.272.062-.248.225-.248.415,0,1.13,0,2.26,0,3.391a.657.657,0,0,1-.393.663.6.6,0,0,1-.652-.085.793.793,0,0,1-.262-.7c0-1.043-.008-2.087.008-3.13,0-.27-.068-.33-.336-.33a13.777,13.777,0,0,1-3.685-.527c-.344-.095-.413-.013-.408.326.018,1.246.012,2.492,0,3.738,0,.492-.283.791-.685.765-.386-.025-.612-.3-.615-.8q-.009-2.087,0-4.173c0-.217-.013-.369-.272-.456a31.519,31.519,0,0,1-5.138-2.288,1.556,1.556,0,0,0-.2-.07c0,.939,0,1.847,0,2.754,0,.145.007.29,0,.435a.659.659,0,0,1-.683.686.643.643,0,0,1-.615-.7c-.007-1.174-.014-2.348,0-3.521a.671.671,0,0,0-.37-.689,28.121,28.121,0,0,1-2.783-1.925c-.128.112-.066.25-.066.367,0,1.855,0,3.709,0,5.564a1.183,1.183,0,0,1-.047.472.615.615,0,0,1-.679.426.606.606,0,0,1-.568-.562,2.842,2.842,0,0,1-.008-.391c0-2.217,0-4.434.005-6.651a.7.7,0,0,0-.269-.589,22.254,22.254,0,0,1-4.335-5.006.5.5,0,0,0-.5-.244q-2.13.01-4.26,0c-.6,0-.944-.456-.711-.925a.751.751,0,0,1,.769-.378c1.116,0,2.231,0,3.347,0h.48a15.143,15.143,0,0,1-.917-2.593,7.618,7.618,0,0,1,.341-5.219.756.756,0,0,1,.427-.463.643.643,0,0,1,.685.148.617.617,0,0,1,.131.724c-1.169,2.522-.39,4.854.679,7.161.2.435.583.172.878.24.236.054.359-.065.459-.28.714-1.532,1.443-3.056,2.158-4.587.144-.308.312-.559.692-.556s.538.268.67.58q1.715,4.049,3.44,8.093c.05.116.1.231.19.424.071-.19.122-.311.163-.435q1.092-3.267,2.182-6.535c.1-.311.219-.607.606-.651.425-.048.632.2.762.561.355.992.73,1.978,1.065,2.977a.515.515,0,0,0,.622.42,10.162,10.162,0,0,1,1.216,0,.647.647,0,0,1,.709.656c0,.39-.259.634-.716.641-.681.011-1.362,0-2.043,0a.715.715,0,0,1-.741-.543c-.236-.666-.48-1.329-.754-2.089-.318.938-.608,1.79-.894,2.642-.468,1.4-.938,2.792-1.4,4.191-.115.351-.256.671-.671.692s-.588-.279-.733-.622q-1.77-4.19-3.555-8.373c-.043-.1-.086-.2-.134-.312-.182.118-.209.3-.281.451-.476.989-.94,1.984-1.408,2.976-.441.936-.441.936-1.463,1-.075.14.053.213.112.3a25.708,25.708,0,0,0,6.127,5.982,31.078,31.078,0,0,0,10.544,5.015,10.8,10.8,0,0,0,4.386.319A2.814,2.814,0,0,0,30.329,37.3a9.482,9.482,0,0,0,1.1-3.718,30.722,30.722,0,0,0-2.255-14.9,7.937,7.937,0,0,0-5.619-4.891,21.3,21.3,0,0,0-11.9-.056A13.2,13.2,0,0,0,7.519,15.98c-.127.1-.248.2-.376.3a.651.651,0,1,1-.83-.995,10.53,10.53,0,0,1,1.54-1.126.544.544,0,0,0,.3-.555A11.411,11.411,0,0,1,8.2,12.081c.03-.284-.031-.343-.3-.34-1.188.013-2.376.011-3.565,0-.531,0-.846-.39-.692-.846a.694.694,0,0,1,.755-.457c1.217,0,2.435-.01,3.651.009.319,0,.484-.052.57-.4A11.072,11.072,0,0,1,9.1,8.758H6.178c-.609,0-1.217.008-1.826,0-.479-.009-.748-.262-.744-.665s.261-.633.761-.634c1.724,0,3.449-.007,5.173,0a.63.63,0,0,0,.58-.279,7.83,7.83,0,0,1,1.713-1.715.375.375,0,0,0,.131-.567c-.339-.686-.658-1.382-.973-2.08a.908.908,0,0,1,.492-1.354c.6-.29,1.2-.574,1.8-.846a.921.921,0,0,1,1.331.489c.346.715.684,1.434,1,2.162.121.277.233.389.571.315.615-.134.622-.1.622-.727,0-.551.028-1.1-.008-1.652A1.167,1.167,0,0,1,17.453,0Z" transform="translate(0 0.001)" fill="#666"></path><path id="Path_39340" data-name="Path 39340" d="M203.575,103.4a14.365,14.365,0,0,0-4.113-1.765,1.581,1.581,0,0,1,1.251-.576c.825-.009,1.651.008,2.476-.01.25-.005.321.091.343.313.065.65.04,1.3.043,2.038" transform="translate(-176.286 -89.306)" fill="#fdfdfd"></path></g></g></g></svg>