<svg xmlns="http://www.w3.org/2000/svg" xmlns:xlink="http://www.w3.org/1999/xlink" width="45" height="45" viewBox="0 0 45 45"><defs><clipPath id="clip-path"><rect id="Rectangle_7999" data-name="Rectangle 7999" width="45" height="45" transform="translate(-17931 -17745)" fill="#fff" stroke="#707070" stroke-width="1"></rect></clipPath><clipPath id="clip-path-2"><rect id="Rectangle_7998" data-name="Rectangle 7998" width="42.215" height="27.347" fill="none"></rect></clipPath></defs><g id="Mask_Group_19653" data-name="Mask Group 19653" transform="translate(17931 17745)" clip-path="url(#clip-path)"><g id="Group_20267" data-name="Group 20267" transform="translate(-17929.607 -17736.174)"><g id="Group_20266" data-name="Group 20266" clip-path="url(#clip-path-2)"><path id="Path_39270" data-name="Path 39270" d="M19.3,26.688c-.115.47-.378.7-.75.652s-.577-.328-.595-.8a3.636,3.636,0,0,0-.234-1.414,55.844,55.844,0,0,1-2.864-7.875,3.276,3.276,0,0,1,.464-2.868c1.084-1.521.757-2.972-.161-4.4a9.054,9.054,0,0,0-.858-1.106,4.571,4.571,0,0,1-.943-4.687c.1-.31.032-.391-.265-.456-3.217-.7-6.43-1.411-9.646-2.111A1.557,1.557,0,0,0,1.475,2.769,3.549,3.549,0,0,0,3.481,6.953a.277.277,0,0,0,.358-.063c1.593-1.621,4.908-1.265,6.414.52a2.588,2.588,0,0,1-.691,4.077,4.858,4.858,0,0,1-5.848-1.095A2.551,2.551,0,0,1,3.1,8.483c.035-.3-.174-.3-.327-.382A4.812,4.812,0,0,1,0,3.426,3.162,3.162,0,0,1,2.365.279,4.782,4.782,0,0,1,4.441.449Q9.121,1.488,13.8,2.527c.155.034.31.1.449-.071A6.485,6.485,0,0,1,18.525.218a14.732,14.732,0,0,1,6.687.354A5.813,5.813,0,0,1,28,2.386a.391.391,0,0,0,.463.128C31.774,1.779,35.083,1.055,38.39.32a2.965,2.965,0,0,1,3.746,2.559c.011.064,0,.14.079.171v1.4c-.144.084-.1.245-.136.367a4.8,4.8,0,0,1-2.656,3.276.452.452,0,0,0-.311.516,2.71,2.71,0,0,1-.869,2.063,4.953,4.953,0,0,1-5.312.963,2.624,2.624,0,0,1-.811-4.412c1.558-1.615,4.681-1.9,6.246-.329a.279.279,0,0,0,.36.056,3.543,3.543,0,0,0,2.011-4.145,1.561,1.561,0,0,0-1.99-1.183c-3.189.694-6.375,1.4-9.564,2.1-.274.06-.333.144-.245.42a4.633,4.633,0,0,1-.965,4.794,6.18,6.18,0,0,0-1.552,2.678,2.825,2.825,0,0,0,.362,2.4c.055.078.1.167.149.247a3.676,3.676,0,0,1,.477,3.216,62.76,62.76,0,0,1-2.65,7.3,3.846,3.846,0,0,0-.365,1.762.681.681,0,0,1-.588.8c-.374.048-.637-.179-.75-.649a1.165,1.165,0,0,1-.094-.6q0-2.019,0-4.039a4.2,4.2,0,0,0-.19-1.258,2.85,2.85,0,0,0-1.448-1.562c-.175-.1-.307-.029-.455.058a2.837,2.837,0,0,0-1.46,2.6c-.007,1.4,0,2.8,0,4.2a1.026,1.026,0,0,1-.1.6" transform="translate(0 0)" fill="#666"></path><path id="Path_39271" data-name="Path 39271" d="M175.029,180.749c0-1.675-.032-3.35,0-5.025a2.821,2.821,0,0,1,1.328-2.377.757.757,0,0,1,1.009-.022,2.918,2.918,0,0,1,1.428,2.732q0,2.347-.013,4.695c-1.251-.041-2.5-.036-3.753,0" transform="translate(-155.724 -154.06)" fill="#fff"></path><path id="Path_39272" data-name="Path 39272" d="M134.515,55.654c-.288-.778-.581-1.553-.862-2.333q-.474-1.317-.852-2.665a2.3,2.3,0,0,1,.292-1.966,4.691,4.691,0,0,0,.846-1.948,5.563,5.563,0,0,0-1.016-3.853,17.3,17.3,0,0,0-1.106-1.436A3.363,3.363,0,0,1,131.33,38c.056-.168.12-.236.323-.186.692.172,1.389.324,2.087.47a.676.676,0,0,1,.433.343,7.429,7.429,0,0,1,1.245,3.994,6.7,6.7,0,0,0,.252,1.665,1.887,1.887,0,0,0,.712,1.129,1.375,1.375,0,0,1,.588,1.154,29.58,29.58,0,0,1,.019,4.693c-.016.283-.237.394-.424.516a4.105,4.105,0,0,0-1.625,1.865,5.986,5.986,0,0,0-.426,2.013" transform="translate(-116.625 -33.63)" fill="#fff"></path><path id="Path_39273" data-name="Path 39273" d="M200.2,55.354a4.623,4.623,0,0,0-1.057-2.976,5.416,5.416,0,0,0-1.212-.914.681.681,0,0,1-.33-.607,31.95,31.95,0,0,1,0-4.076c.026-.273.057-.546.1-.816a.921.921,0,0,1,.394-.638,3.238,3.238,0,0,0,1.155-2.415c.076-.571.1-1.15.191-1.719a7.4,7.4,0,0,1,1.218-2.9.494.494,0,0,1,.319-.236c.683-.149,1.367-.3,2.046-.464.194-.048.28.006.336.179a3.368,3.368,0,0,1-.423,3.427,18.31,18.31,0,0,0-1.2,1.572,5.365,5.365,0,0,0-.927,4.027,4.731,4.731,0,0,0,.777,1.67,2.33,2.33,0,0,1,.311,2,47.18,47.18,0,0,1-1.708,4.888" transform="translate(-175.761 -33.433)" fill="#fff"></path><path id="Path_39274" data-name="Path 39274" d="M142.318,13.865c1.866-2.116,9.175-2.048,10.892-.046-1.638.844-8.079,1.072-10.892.046" transform="translate(-126.632 -10.942)" fill="#fff"></path><path id="Path_39275" data-name="Path 39275" d="M175.837,44.73c.6,0,1.207,0,1.81,0,.208,0,.286.05.169.255a9.9,9.9,0,0,0-.991,4.034,2.039,2.039,0,0,1-.861,1.773.306.306,0,0,1-.386.009,1.71,1.71,0,0,1-.725-1.484c-.072-.667-.108-1.338-.2-2a7.089,7.089,0,0,0-.768-2.287c-.123-.234-.076-.307.188-.3.59.012,1.179,0,1.769,0" transform="translate(-154.658 -39.796)" fill="#fff"></path><path id="Path_39276" data-name="Path 39276" d="M42.42,65.165a3.516,3.516,0,0,1,2.549,1.074,1.243,1.243,0,0,1-.334,2.067,3.474,3.474,0,0,1-4.122-.811,1.229,1.229,0,0,1,.37-1.93,3.277,3.277,0,0,1,1.537-.4" transform="translate(-35.766 -57.983)" fill="#fff"></path><path id="Path_39277" data-name="Path 39277" d="M297.889,68.775a3.049,3.049,0,0,1-1.624-.458,1.211,1.211,0,0,1-.313-1.825,3.47,3.47,0,0,1,4.255-.8,1.217,1.217,0,0,1,.346,1.879,3.35,3.35,0,0,1-2.665,1.2" transform="translate(-263.081 -58.086)" fill="#fff"></path><path id="Path_39278" data-name="Path 39278" d="M207.861,130.307c0-.274-.013-.549,0-.822a.7.7,0,0,1,.641-.638.694.694,0,0,1,.676.643c.015.561.017,1.124,0,1.685a.632.632,0,0,1-.639.622.641.641,0,0,1-.676-.627c-.018-.287,0-.575,0-.863" transform="translate(-184.946 -114.646)" fill="#fefefe"></path></g></g></g></svg>