<svg xmlns="http://www.w3.org/2000/svg" xmlns:xlink="http://www.w3.org/1999/xlink" width="45" height="45" viewBox="0 0 45 45"><defs><clipPath id="clip-path"><rect id="Rectangle_8024" data-name="Rectangle 8024" width="45" height="45" transform="translate(-17900 -17230)" fill="#fff" stroke="#707070" stroke-width="1"></rect></clipPath><clipPath id="clip-path-2"><rect id="Rectangle_8023" data-name="Rectangle 8023" width="38.65" height="44.087" fill="none"></rect></clipPath></defs><g id="Mask_Group_19666" data-name="Mask Group 19666" transform="translate(17900 17230)" clip-path="url(#clip-path)"><g id="Group_20285" data-name="Group 20285" transform="translate(-17893.941 -17230)"><g id="Group_20284" data-name="Group 20284" clip-path="url(#clip-path-2)"><path id="Path_39388" data-name="Path 39388" d="M6.855,43.475a.73.73,0,0,1-.96.409A7.628,7.628,0,0,1,.035,36.7c-.041-2.151-.053-4.3.007-6.454A8.386,8.386,0,0,1,3.513,23.5,5.171,5.171,0,0,0,5.8,18.869a8.843,8.843,0,0,1,0-1.075c.025-.327-.06-.45-.415-.432a2.856,2.856,0,0,1-1.755-.468,2.8,2.8,0,0,1-1.325-2.2,9.452,9.452,0,0,1,.016-1.932,2.806,2.806,0,0,1,2.062-2.443c.067-.022.131-.051.3-.118C4,9.536,3.32,8.944,2.71,8.286A4.916,4.916,0,0,1,4.343.42,3.6,3.6,0,0,1,5.618.072C5.76,0,5.93.1,6.068,0h.517c.137.1.307,0,.448.071A4.2,4.2,0,0,1,9.56,1.229q3.174,3.113,6.292,6.283A4.173,4.173,0,0,1,17,9.821c.052.324.186.379.476.374.93-.017,1.862,0,2.792-.007a.7.7,0,0,1,.8.655c.046.389-.054.523-.529.715-.645.033-1.291.016-1.936.014-4.26-.009-8.521.024-12.781.016-.1,0-.2,0-.3,0a1.645,1.645,0,0,0-1.81,1.863c0,.316-.014.632.008.946a1.527,1.527,0,0,0,1.33,1.516,3.346,3.346,0,0,0,.685.051c6.168,0,12.336.025,18.5.014a1.679,1.679,0,0,0,.512-.038,1.506,1.506,0,0,0,1.385-1.459,4.456,4.456,0,0,0-.06-1.751,1.577,1.577,0,0,0-1.539-1.153c-.372-.027-.747.017-1.117-.024a.569.569,0,0,1-.575-.712c.132-.507.293-.648.8-.651a9.249,9.249,0,0,1,1.5.051A2.915,2.915,0,0,1,27.514,12.7a11.524,11.524,0,0,1,.033,1.72,2.9,2.9,0,0,1-3.037,2.939c-.379,0-.484.089-.461.466a13.007,13.007,0,0,0,.174,2.824,4.716,4.716,0,0,0,1,1.858c1.363-1.364,2.709-2.715,4.059-4.061a8.323,8.323,0,0,1,2.427-1.955,4.957,4.957,0,0,1,5.961,1.586,4.832,4.832,0,0,1-.251,6.146c-2.055,2.162-4.2,4.235-6.317,6.342a2.889,2.889,0,0,1-.954.65c-.285.114-.326.286-.324.555.011,1.521.009,3.042,0,4.563a7.638,7.638,0,0,1-7.738,7.748c-4.19.007-8.379,0-12.569.006-.456,0-.79-.116-.887-.608a.625.625,0,0,1,.526-.773,2.847,2.847,0,0,1,.686-.038q6.156,0,12.311,0a6.246,6.246,0,0,0,6.256-6.235c0-1.865-.011-3.731,0-5.6a7.59,7.59,0,0,0-3.237-6.466,6.038,6.038,0,0,1-2.534-4.81c-.013-.53-.023-1.06-.014-1.59.005-.308-.128-.45-.435-.439-.129,0-.258,0-.387,0H8.062c-.1,0-.2,0-.3,0-.465.015-.511.059-.521.526-.008.372.005.745-.007,1.116a6.539,6.539,0,0,1-1.7,4.435c-.476.526-1.095.878-1.611,1.353a7.077,7.077,0,0,0-2.458,5.133c-.064,2.236-.051,4.475,0,6.711a5.773,5.773,0,0,0,1.8,4.025,5.841,5.841,0,0,0,2.83,1.635,1.918,1.918,0,0,1,.445.16.593.593,0,0,1,.319.849" transform="translate(0)" fill="#666"></path><path id="Path_39389" data-name="Path 39389" d="M49.271,0a.482.482,0,0,1-.45.072A.274.274,0,0,1,48.84,0Z" transform="translate(-43.203)" fill="#464646"></path><path id="Path_39390" data-name="Path 39390" d="M57.667.072A.5.5,0,0,1,57.219,0h.43a.193.193,0,0,1,.018.071" transform="translate(-50.635 -0.001)" fill="#525252"></path><path id="Path_39391" data-name="Path 39391" d="M32.73,166.87a6.167,6.167,0,0,0,2.627,4.754,7.483,7.483,0,0,1,3.153,6.277c.011,1.907.008,3.814,0,5.721A6.341,6.341,0,0,1,32.1,190.03c-4.216.008-8.431,0-12.647,0-.565,0-.746.151-.846.687a6.638,6.638,0,0,1-1.281-.078.668.668,0,0,0-.5.073c0-.574-.113-.714-.68-.86a6.305,6.305,0,0,1-4.853-6.113q-.052-3.03,0-6.063a7.339,7.339,0,0,1,3.105-6.03,6.2,6.2,0,0,0,2.544-3.886c.079-.406.092-.824.135-1.237a.761.761,0,0,1,.569-.139q7.226,0,14.451,0c.536,0,.553.025.628.48" transform="translate(-9.975 -147.241)" fill="#fff"></path><path id="Path_39392" data-name="Path 39392" d="M111.492,94.223a.69.69,0,0,0,.812.639c.3-.011.6-.008.9,0a1.615,1.615,0,0,1,1.7,1.627,10.988,10.988,0,0,1-.031,1.59,1.5,1.5,0,0,1-1.36,1.33,1.135,1.135,0,0,1-.426.029c-3.817,0-7.633-.006-11.45.011a.805.805,0,0,1-.86-.54,7.1,7.1,0,0,1-.576-3.4c.048-.588.113-.628.72-.628q3.939,0,7.877,0a1.2,1.2,0,0,0,.468-.031.756.756,0,0,0,.449-.621h1.776" transform="translate(-88.651 -83.381)" fill="#fff"></path><path id="Path_39393" data-name="Path 39393" d="M23.366,14.289a3.648,3.648,0,0,1,6.062-2.311c.842.756,1.609,1.595,2.421,2.386.169.165.145.255-.01.408q-2.381,2.365-4.746,4.747c-.179.181-.268.157-.431-.011-.731-.749-1.481-1.481-2.216-2.226a3.8,3.8,0,0,1-1.081-2.993" transform="translate(-20.676 -9.74)" fill="#fff"></path><path id="Path_39394" data-name="Path 39394" d="M255.01,150.989a3.642,3.642,0,0,1,2.422,6.062c-.757.84-1.593,1.609-2.383,2.419-.156.16-.248.166-.409,0q-2.363-2.38-4.743-4.742c-.178-.176-.163-.274.007-.44.769-.751,1.519-1.521,2.288-2.272a3.708,3.708,0,0,1,2.818-1.031" transform="translate(-221.03 -133.615)" fill="#fff"></path><path id="Path_39395" data-name="Path 39395" d="M48.129,99.619c-.147.135-.328.076-.493.077q-3.955.006-7.91,0c-.293,0-.459.032-.5.391a6.713,6.713,0,0,0,.718,3.9c.122.241.332.185.524.185q5.7,0,11.393,0c.172,0,.343.01.515.015a.929.929,0,0,1-.5.057q-9.443,0-18.885,0a1.69,1.69,0,0,1-1.893-1.916c0-.287,0-.574,0-.86A1.66,1.66,0,0,1,32.9,99.636c2.352-.006,4.7,0,7.055-.007l8.173-.01" transform="translate(-27.514 -88.156)" fill="#fff"></path><path id="Path_39396" data-name="Path 39396" d="M77.243,153.155c-.067-.309-.268-.35-.558-.35q-7.545.015-15.09.007c-.006-.559-.006-1.118-.022-1.676-.005-.189.06-.263.246-.241a1.859,1.859,0,0,0,.215,0q7.378,0,14.756-.008c.366,0,.5.068.473.462-.041.6-.016,1.2-.02,1.805" transform="translate(-54.488 -133.526)" fill="#fff"></path><path id="Path_39397" data-name="Path 39397" d="M231.181,198.073a9.23,9.23,0,0,0-1.092-3.658,9.077,9.077,0,0,0-2.536-2.891c.477-.472.95-.925,1.4-1.395.213-.22.3-.01.4.1q1.418,1.408,2.828,2.824.942.942,1.884,1.884c.1.1.237.172.064.34-.9.879-1.8,1.766-2.7,2.648a1.468,1.468,0,0,1-.254.152" transform="translate(-201.369 -168.166)" fill="#fff"></path><path id="Path_39398" data-name="Path 39398" d="M68.581,54.757c1.419-1.418,2.819-2.812,4.21-4.215.16-.161.24-.113.372.021.784.8,1.58,1.581,2.363,2.379a3.477,3.477,0,0,1,.86,1.562c.047.175.083.327-.207.326-2.507-.013-5.014-.014-7.521-.019-.011,0-.021-.014-.078-.053" transform="translate(-60.69 -44.637)" fill="#fff"></path><path id="Path_39399" data-name="Path 39399" d="M46.165,193.088q-3.722,0-7.444,0a3.186,3.186,0,0,1-3.4-3.381q-.008-3.055,0-6.11a3.172,3.172,0,0,1,3.369-3.362c.76,0,1.52-.012,2.28,0,.323.007.443-.018.344-.413a5.629,5.629,0,0,1,2.735-6.265,1.119,1.119,0,0,1,1.36.01,1.1,1.1,0,0,1,.269,1.363,3.645,3.645,0,0,0,4.693,4.71,1.055,1.055,0,0,1,1.48.439.37.37,0,0,0,.364.15c.574,0,1.148-.011,1.721.008a3.155,3.155,0,0,1,3.092,3.118q.033,3.291,0,6.583a3.162,3.162,0,0,1-3.164,3.14c-2.567.016-5.135,0-7.7,0Z" transform="translate(-31.255 -153.393)" fill="#666"></path><path id="Path_39400" data-name="Path 39400" d="M56.086,254.719q-3.721,0-7.442,0a1.9,1.9,0,0,1-2.087-2.075q-.006-3.076,0-6.152a1.88,1.88,0,0,1,2.028-2.041c1.018-.005,2.036.007,3.054-.007a.564.564,0,0,1,.521.278,5.642,5.642,0,0,0,9.189.011.592.592,0,0,1,.56-.289c.63.018,1.262,0,1.893.01a1.873,1.873,0,0,1,1.883,1.931q.013,3.2,0,6.41a1.882,1.882,0,0,1-1.942,1.922c-2.552.008-5.1,0-7.657,0" transform="translate(-41.197 -216.316)" fill="#fff"></path><path id="Path_39401" data-name="Path 39401" d="M99.119,187.691a4.945,4.945,0,0,0,5.612,6.122c.11-.016.259-.16.34.016.055.12-.093.191-.163.271a4.368,4.368,0,0,1-7.633-3.192,4.282,4.282,0,0,1,1.456-2.969c.075-.067.151-.133.231-.192a.7.7,0,0,1,.156-.055" transform="translate(-86.072 -166.094)" fill="#fff"></path><path id="Path_39402" data-name="Path 39402" d="M168.954,293.364a3.029,3.029,0,0,1,2.5.432,1.756,1.756,0,0,1-.024,2.987,2.874,2.874,0,0,1-3.966-.652,1.567,1.567,0,0,1,.536-2.193,1.313,1.313,0,0,0,.952-.574" transform="translate(-147.986 -259.525)" fill="#fff"></path><path id="Path_39403" data-name="Path 39403" d="M52.62,293.878a1.874,1.874,0,0,1,.612,1.777,1.957,1.957,0,0,1-.771,1.1,3.031,3.031,0,0,1-3.526-.078,1.77,1.77,0,0,1,.314-3.01,3.12,3.12,0,0,1,2.325-.306,1.117,1.117,0,0,0,1.047.518" transform="translate(-42.684 -259.519)" fill="#fff"></path><path id="Path_39404" data-name="Path 39404" d="M113.841,289.987A2.437,2.437,0,0,1,112,289.2a.644.644,0,1,1,.886-.933,1.239,1.239,0,0,0,1.9-.009.639.639,0,0,1,.923,0,.629.629,0,0,1-.027.924,2.441,2.441,0,0,1-1.836.8" transform="translate(-98.905 -254.915)" fill="#666"></path><path id="Path_39405" data-name="Path 39405" d="M172.12,281.012c-.209.574-.354.662-.952.574a.754.754,0,0,1-.36-.72c.017-.3-.005-.6.008-.9a.637.637,0,0,1,.6-.654.654.654,0,0,1,.678.63c.027.355.018.712.025,1.068" transform="translate(-151.152 -247.173)" fill="#666"></path><path id="Path_39406" data-name="Path 39406" d="M78.3,281.571c-.6.2-.872.07-1.047-.518.006-.372,0-.744.022-1.115a.589.589,0,0,1,.544-.572.527.527,0,0,1,.651.362,2.143,2.143,0,0,1-.17,1.843" transform="translate(-68.365 -247.212)" fill="#666"></path></g></g></g></svg>