<svg xmlns="http://www.w3.org/2000/svg" xmlns:xlink="http://www.w3.org/1999/xlink" width="45" height="45" viewBox="0 0 45 45"><defs><clipPath id="clip-path"><rect id="Rectangle_8038" data-name="Rectangle 8038" width="45" height="45" transform="translate(-17914 -17232)" fill="#fff" stroke="#707070" stroke-width="1"></rect></clipPath><clipPath id="clip-path-2"><rect id="Rectangle_8037" data-name="Rectangle 8037" width="42.054" height="42.133" fill="none"></rect></clipPath></defs><g id="Mask_Group_19670" data-name="Mask Group 19670" transform="translate(17914 17232)" clip-path="url(#clip-path)"><g id="Group_20293" data-name="Group 20293" transform="translate(-17912.859 -17230.928)"><g id="Group_20292" data-name="Group 20292" clip-path="url(#clip-path-2)"><path id="Path_39441" data-name="Path 39441" d="M48.577,79.021l-6.974.007c-.006-.245.194-.357.336-.5q3.355-3.364,6.72-6.72c.256-.255.492-.527.748-.782a4.267,4.267,0,0,1,2.847-1.107c.29-.023.584.007.875-.019a.819.819,0,0,1,.541.181,5.182,5.182,0,0,0,6.024-.459c.225-.185.446-.375.672-.559a10.569,10.569,0,0,0,4.873-3.96,34.024,34.024,0,0,0,2.479-3.654,10.877,10.877,0,0,0,1.492-1.38,5.434,5.434,0,0,0,1.179-3.884,14.968,14.968,0,0,1,.269-1.927,7.136,7.136,0,0,0-.407-3.421,1.04,1.04,0,0,1-.084-.319.919.919,0,0,1,.344-.641c2-2,3.989-4.022,6.016-6,.585-.571,1.179-1.135,1.768-1.7.107-.1.2-.24.378-.227q.006,3.5.012,7.01c-.032.031-.084.051-.11.022-.347-.38-.576-.136-.838.128-1.4,1.413-2.8,2.825-4.22,4.219a4.936,4.936,0,0,0-1.409,2.643c-.18.915-.266,1.843-.4,2.765A13.55,13.55,0,0,1,68.3,65.813,24.357,24.357,0,0,1,64.13,69.7,13.148,13.148,0,0,1,57.9,72.13c-.759.087-1.518.181-2.269.329a4.972,4.972,0,0,0-2.646,1.406c-1.389,1.4-2.791,2.8-4.187,4.192-.439.439-.439.439-.223.964" transform="translate(-36.962 -37.269)" fill="#fff"></path><path id="Path_39442" data-name="Path 39442" d="M32.994,3.2,40,3.211c.015.2-.14.293-.254.407Q36.068,7.3,32.384,10.982c-.136.136-.26.3-.479.3a1.043,1.043,0,0,1-.455-.2,5.682,5.682,0,0,0-5.588-.2c-.375.182-.743.38-1.123.552A7.586,7.586,0,0,0,21.5,12.883a19.824,19.824,0,0,0-6.1,3.836,12.627,12.627,0,0,0-3.364,5.806,7.172,7.172,0,0,0-.85,2.334,5.042,5.042,0,0,0,.68,3.279,1.563,1.563,0,0,1,.259.982,5.725,5.725,0,0,1-.789,2.938,4.51,4.51,0,0,1-.462.535c-1.9,1.9-3.781,3.805-5.7,5.683-.624.612-1.271,1.2-1.892,1.819-.1.1-.191.208-.351.194q0-3.49.005-6.98c.523.217.524.217.963-.223,1.347-1.347,2.673-2.716,4.048-4.033a5.415,5.415,0,0,0,1.634-3.246c.132-.894.219-1.793.371-2.684A13.492,13.492,0,0,1,13.2,16.549a23.266,23.266,0,0,1,4.9-4.427A13.006,13.006,0,0,1,23.825,10.1a19.384,19.384,0,0,0,2.429-.377A4.86,4.86,0,0,0,28.581,8.4q2.107-2.112,4.22-4.216c.27-.267.555-.5.167-.879-.028-.027-.006-.078.026-.109" transform="translate(-2.603 -2.843)" fill="#fff"></path><path id="Path_39443" data-name="Path 39443" d="M164.241,8.7c.289-.279.583-.553.867-.838q3.461-3.467,6.918-6.937c.077-.078.146-.165.218-.247.515-.44.515-.44,1.034,0,.524.245.576.462.178.86q-4.15,4.16-8.314,8.307a4.726,4.726,0,0,1-2.024,1.118,4.193,4.193,0,0,1-.9.169c-.2,0-.246.1-.143.27a6.46,6.46,0,0,1,.843,2.252c.045.261.269.295.471.341a6.315,6.315,0,0,1,2.626,1.275,6.473,6.473,0,0,1,.206-1.126,6.044,6.044,0,0,1,1.627-2.618c2.593-2.568,5.237-5.084,7.79-7.692.451-.461.665-.424.916.127.442.517.442.517,0,1.027q-1.724,1.687-3.447,3.375-2.164,2.133-4.316,4.277a3.011,3.011,0,0,0-.666.789,6.274,6.274,0,0,1-.23.668,7.762,7.762,0,0,0-.391,2.374.666.666,0,0,0,.11.4,4.311,4.311,0,0,1,.759,2.426,5.622,5.622,0,0,1-2.74,5.26,3.505,3.505,0,0,1-2,.82,4.807,4.807,0,0,1-3.708-.825,4.072,4.072,0,0,1-1.795-2.839,4.331,4.331,0,0,1,.235-1.721,11.112,11.112,0,0,0,.339-1.117c.057-.3-.016-.364-.3-.268a5.808,5.808,0,0,0-.655.271,3.483,3.483,0,0,1-4.2-.637,4.747,4.747,0,0,1-1.687-2.894,5.543,5.543,0,0,1,1.377-4.692,1.255,1.255,0,0,1,.486-.375,6.155,6.155,0,0,1,3.222-1.448,3.39,3.39,0,0,1,2.661.366,3.672,3.672,0,0,0,2.814.308,3.521,3.521,0,0,0,1.409-.6,1.187,1.187,0,0,1,.408-.2" transform="translate(-134.848 -0.308)" fill="#666"></path><path id="Path_39444" data-name="Path 39444" d="M.336,173.123q1.7-1.662,3.4-3.324c1.416-1.4,2.791-2.837,4.25-4.187a5.224,5.224,0,0,0,1.436-4.07.55.55,0,0,0-.121-.3,5.2,5.2,0,0,1,.009-5.779.738.738,0,0,0,.046-.115,5.289,5.289,0,0,1,4.01-2.545,2.069,2.069,0,0,1,.822-.059,4.867,4.867,0,0,1,2.3.645,4.144,4.144,0,0,1,2.2,3.063,4.06,4.06,0,0,1-.232,1.719c-.107.373-.268.732-.341,1.115-.059.31.042.4.334.281s.562-.24.843-.359a3.519,3.519,0,0,1,3.993.762c.278.272.563.536.814.835a4.973,4.973,0,0,1,.945,2.713,5.555,5.555,0,0,1-1.184,3.683,2.476,2.476,0,0,1-.384.315,5.663,5.663,0,0,1-4.433,1.843,4.583,4.583,0,0,1-2.415-.807.836.836,0,0,0-.582-.158c-.484.047-.971.062-1.452.128a3.674,3.674,0,0,0-2.161,1.071q-3.85,3.876-7.709,7.744a.755.755,0,0,0-.072.1c-.516.441-.516.441-1.008.016-.085-.1-.229-.093-.321-.185a.345.345,0,0,1-.07-.483,2.593,2.593,0,0,1,.338-.367c2.551-2.552,5.114-5.092,7.646-7.662a6.063,6.063,0,0,1,2.558-1.57,3.977,3.977,0,0,1,.737-.134c.2-.021.324-.089.185-.319a6.382,6.382,0,0,1-.8-2.177.38.38,0,0,0-.323-.334,7.407,7.407,0,0,1-2.68-1.205c-.024-.016-.053-.011-.1.009-.106.331-.1.7-.208,1.042a5.788,5.788,0,0,1-1.5,2.456c-2.607,2.593-5.274,5.126-7.847,7.754-.451.461-.665.424-.916-.127-.436-.52-.436-.52,0-1.026" transform="translate(-0.009 -135.676)" fill="#666"></path><path id="Path_39445" data-name="Path 39445" d="M101.767,132.051c-.4-.473-.4-.472.058-.933,1.374-1.38,2.774-2.736,4.114-4.149a5.918,5.918,0,0,1,3.814-1.746,16.135,16.135,0,0,0,5.394-1.313,18.575,18.575,0,0,0,4.92-3.677,17.721,17.721,0,0,0,3.836-5.308,14.706,14.706,0,0,0,1.043-4.272c.069-.579.146-1.159.261-1.73a5.084,5.084,0,0,1,1.467-2.7q2.211-2.156,4.383-4.352c.287-.291.466-.322.691.017a.586.586,0,0,0,.126.106c.449.524.449.523-.053,1.019-1.306,1.292-2.582,2.615-3.926,3.865a4.886,4.886,0,0,0-1.533,3.185,19.827,19.827,0,0,1-.876,4.488,15.685,15.685,0,0,1-2.62,4.565,25.135,25.135,0,0,1-4.976,4.726,14.729,14.729,0,0,1-7.358,2.64,14.226,14.226,0,0,0-1.6.255,3.68,3.68,0,0,0-1.9,1.053c-1.445,1.467-2.913,2.912-4.349,4.388-.293.3-.493.381-.75.007a.732.732,0,0,0-.159-.13" transform="translate(-90.151 -90.299)" fill="#666"></path><path id="Path_39446" data-name="Path 39446" d="M30.391.358c.438.492.437.492-.03.961-1.326,1.33-2.685,2.63-3.967,4a6.078,6.078,0,0,1-3.924,1.885,18.286,18.286,0,0,0-4.4.879,15.553,15.553,0,0,0-5.017,3.225,20.609,20.609,0,0,0-4.336,5.3A13.769,13.769,0,0,0,7.24,21.785c-.063.58-.145,1.159-.262,1.73a5.07,5.07,0,0,1-1.443,2.671c-1.431,1.4-2.847,2.819-4.27,4.23-.459.455-.459.454-.933.052-.455-.56-.455-.56.072-1.081,1.3-1.281,2.563-2.594,3.9-3.834a4.877,4.877,0,0,0,1.525-3.188A18.7,18.7,0,0,1,6.864,17.45a17.336,17.336,0,0,1,3.383-5.213,21.776,21.776,0,0,1,5.761-4.687,15.264,15.264,0,0,1,5.694-1.6c.524-.056,1.045-.147,1.562-.252a3.654,3.654,0,0,0,1.9-1.052C26.613,3.18,28.077,1.733,29.514.259c.29-.3.493-.385.749-.007a.592.592,0,0,0,.127.106" transform="translate(0 -0.001)" fill="#666"></path><path id="Path_39447" data-name="Path 39447" d="M252.307,13.371a6.4,6.4,0,0,0,2.664-1.782c2.461-2.511,4.959-4.986,7.442-7.476.453-.454.452-.456.043-.932.987,0,1.975,0,2.962-.018.257,0,.338.087.335.339-.015.987-.013,1.975-.018,2.962-.47-.419-.469-.418-.928.036q-3.95,3.9-7.9,7.793a6.071,6.071,0,0,0-1.418,2.319c-.181.071-.321-.041-.467-.11a5.947,5.947,0,0,0-1.78-.543c-.54-.068-.58-.118-.635-.673a7.38,7.38,0,0,0-.373-1.445c-.05-.161-.159-.349.077-.471" transform="translate(-224.025 -2.81)" fill="#fff"></path><path id="Path_39448" data-name="Path 39448" d="M16.207,257.46a6.711,6.711,0,0,0-2.765,1.837c-2.414,2.473-4.872,4.9-7.313,7.35-.487.489-.487.489-.051.986-.971,0-1.943-.013-2.914,0-.3,0-.421-.061-.413-.389.024-.971.016-1.943.021-2.914.476.415.475.414.93-.035q3.92-3.871,7.843-7.74a5.935,5.935,0,0,0,1.4-2.287c.126-.093.237-.018.347.034a5.588,5.588,0,0,0,2.094.613.4.4,0,0,1,.416.38,6.793,6.793,0,0,0,.434,1.808.359.359,0,0,1-.025.356" transform="translate(-2.444 -225.859)" fill="#fff"></path><path id="Path_39449" data-name="Path 39449" d="M55.389,32.558c.1-.024.162.014.178.119,0,.027.007.055.012.082.067.34.266.728.165,1.008s-.574.224-.881.325a13.7,13.7,0,0,0-5.6,3.794c-.388.406-.387.408-.794.048-.6-.531-.6-.532-.05-1.1a14.762,14.762,0,0,1,6.009-4c.316-.1.639-.185.959-.277" transform="translate(-42.656 -28.919)" fill="#666"></path><path id="Path_39450" data-name="Path 39450" d="M47.954,70.285c-.005.117-.1.161-.172.219a12.56,12.56,0,0,0-4.035,5.9c-.068.207-.137.251-.347.194-1.066-.289-1.071-.284-.674-1.312a14.052,14.052,0,0,1,4.13-5.759c.252-.212.391-.213.567.068a8.6,8.6,0,0,0,.531.691" transform="translate(-37.743 -61.633)" fill="#666"></path><path id="Path_39451" data-name="Path 39451" d="M272.207,268.253c-.175-.047-.2-.223-.245-.344-.114-.283-.376-.513-.324-.853.007-.042.114-.068.175-.1a12.732,12.732,0,0,0,4.66-4.185c.15-.224.243-.206.444-.076.893.579.9.572.245,1.426a14.256,14.256,0,0,1-4.648,3.972c-.1.052-.2.1-.305.16" transform="translate(-241.323 -233.299)" fill="#666"></path><path id="Path_39452" data-name="Path 39452" d="M256.365,310.075c-.081.023-.138-.038-.159-.152-.008-.041-.018-.081-.024-.123-.047-.315-.216-.683-.108-.932.12-.277.565-.191.866-.268a11.759,11.759,0,0,0,3.709-1.636c.2-.135.3-.137.446.078.619.882.627.874-.3,1.416a13.25,13.25,0,0,1-4.14,1.568c-.082.016-.164.028-.29.05" transform="translate(-227.47 -272.63)" fill="#666"></path><path id="Path_39453" data-name="Path 39453" d="M210.3,224.156a5.967,5.967,0,0,0,1.416-3.13,5.131,5.131,0,0,0-.883-3.544,2.911,2.911,0,0,1,1.107-1.011,5.266,5.266,0,0,0,5.686.093,9.385,9.385,0,0,1-1.107,1.8,22.448,22.448,0,0,1-3.261,4.021,7.681,7.681,0,0,1-2.958,1.775" transform="translate(-186.833 -192.317)" fill="#fff"></path><path id="Path_39454" data-name="Path 39454" d="M292.742,123.465a5.893,5.893,0,0,0-.92-2.456.27.27,0,0,1-.055-.152,5.842,5.842,0,0,1,.727-3.258c.108.328.229.652.321.984a7.653,7.653,0,0,1,.221,2.791,19.3,19.3,0,0,0-.293,2.091" transform="translate(-259.211 -104.477)" fill="#fff"></path><path id="Path_39455" data-name="Path 39455" d="M88.559,96.544a5.963,5.963,0,0,0-4.82,2.518A12.31,12.31,0,0,1,85.963,94.5c1.837-2.444,4.424-3.846,7.112-5.1a.8.8,0,0,1,.2-.037,6.077,6.077,0,0,0-1.752,3.178,6.529,6.529,0,0,0-.024,1.9c.078.186-.051.286-.171.375a18.116,18.116,0,0,0-1.985,1.619c-.223.22-.513.144-.785.109" transform="translate(-74.395 -79.392)" fill="#fff"></path><path id="Path_39456" data-name="Path 39456" d="M205.376,66.433a4.063,4.063,0,0,1-2.76,1.061,2.426,2.426,0,0,1-1.687-.353,4.573,4.573,0,0,0-2.843-.575,7.44,7.44,0,0,1,3.816-1.233,6.026,6.026,0,0,1,3.063.91,1.226,1.226,0,0,0,.412.19" transform="translate(-175.983 -58.043)" fill="#fff"></path><path id="Path_39457" data-name="Path 39457" d="M172.735,89.839a3.963,3.963,0,0,1,5.545-.526,5.5,5.5,0,0,1,1.673,4.794c-.014.318.034.417.364.45.937.094.935.113,1.011-.824a.369.369,0,0,1,.024-.079,5.192,5.192,0,0,1,4.009,3.707,3.983,3.983,0,0,1-1.506,3.84,2.117,2.117,0,0,1-1.5.165,4.153,4.153,0,0,1-2.983-1.713,2.677,2.677,0,0,1-.479-2.25c.095-.437.243-.856.38-1.279a2.917,2.917,0,0,0,.18-.77.768.768,0,0,0-1.036-.817,2.811,2.811,0,0,0-.62.244c-1.891,1.074-3.465.23-4.479-1.213a4.213,4.213,0,0,1-.805-3.152,1.342,1.342,0,0,1,.222-.579" transform="translate(-153.219 -78.545)" fill="#fff"></path><path id="Path_39458" data-name="Path 39458" d="M126.935,136.972a1.138,1.138,0,0,0,1-.452,14.118,14.118,0,0,1,1.719-1.369c.105-.078.2-.144.219-.282a5.075,5.075,0,0,0,1.989,3.069,3.329,3.329,0,0,0,3.561.451c.3-.135.6-.283.912-.4.115-.045.251-.161.382-.02a.377.377,0,0,1,.043.394c-.106.359-.219.715-.331,1.072a4.515,4.515,0,0,0-.266,1.757,3.609,3.609,0,0,0,1.215,2.347c.16.152.33.293.5.439a12.359,12.359,0,0,1-1.107,1.011,8.32,8.32,0,0,0-1.211-1.139,3.306,3.306,0,0,0-3.462-.4c-.292.128-.58.268-.875.389-.133.054-.279.175-.424.048s-.089-.278-.044-.428c.076-.252.142-.508.225-.758a4.088,4.088,0,0,0-3.759-5.679c-.1-.008-.19-.031-.285-.048" transform="translate(-112.772 -119.82)" fill="#fff"></path><path id="Path_39459" data-name="Path 39459" d="M165.866,101.222a4.335,4.335,0,0,0,1.078,4.188,3.222,3.222,0,0,0,2.153,1.143,3.11,3.11,0,0,0,1.519-.358c.278-.124.555-.253.837-.367a.8.8,0,0,1,.928.111,1,1,0,0,1,.3,1.021c-.151.689-.464,1.33-.575,2.035a2.5,2.5,0,0,0,.355,1.781,4.288,4.288,0,0,0,4.527,1.809,3.813,3.813,0,0,1-5.085.111,2.226,2.226,0,0,1-.714-2.446,13.72,13.72,0,0,0,.491-1.676,1.6,1.6,0,0,0-1.178-1.886,1.752,1.752,0,0,0-.821.077,3.192,3.192,0,0,0-.62.237A2.736,2.736,0,0,1,165,105.423a3.99,3.99,0,0,1,.869-4.2" transform="translate(-146.351 -89.928)" fill="#fff"></path><path id="Path_39460" data-name="Path 39460" d="M242.554,94.649c-.132.167-.01.32.038.468a4.9,4.9,0,0,1,.378,1.693c-.012.311.259.287.41.3a6.163,6.163,0,0,1,2.351.781,9.373,9.373,0,0,0-.178,1.363,6.084,6.084,0,0,0-2.567-1.3.889.889,0,0,1-.847-.875,5.588,5.588,0,0,0-.957-2.212,9.1,9.1,0,0,0,1.371-.216" transform="translate(-214.272 -84.088)" fill="#fff"></path><path id="Path_39461" data-name="Path 39461" d="M100.1,185.175a3.969,3.969,0,0,1-5.6.624,5.394,5.394,0,0,1-1.689-4.707c.02-.423-.07-.582-.475-.564a.277.277,0,0,1-.041,0c-.776-.081-.777-.081-.848.683-.013.138.017.3-.216.22a5.4,5.4,0,0,1-3.712-3.2,3.962,3.962,0,0,1,1.289-4.245,2.4,2.4,0,0,1,1.615-.2,4.317,4.317,0,0,1,2.632,1.316,2.848,2.848,0,0,1,.79,2.758c-.092.379-.213.749-.335,1.118a4.255,4.255,0,0,0-.2.724.78.78,0,0,0,1.071.921,4.435,4.435,0,0,0,.571-.255,3.04,3.04,0,0,1,4.15.8,3.991,3.991,0,0,1,.994,4.008" transform="translate(-77.58 -154.35)" fill="#fff"></path><path id="Path_39462" data-name="Path 39462" d="M111.909,178.2a4.959,4.959,0,0,0-.242-2.607,4.142,4.142,0,0,0-2.493-2.461,3.046,3.046,0,0,0-2.321.34,5.309,5.309,0,0,1-.683.3.886.886,0,0,1-1.148-1.141c.12-.469.279-.928.432-1.388.681-2.042-.709-3.483-2.2-4.061a4.253,4.253,0,0,0-2.638-.176,3.806,3.806,0,0,1,5.266-.128,2.219,2.219,0,0,1,.638,2.356,13.312,13.312,0,0,0-.5,1.717,1.526,1.526,0,0,0,2.059,1.765,12.32,12.32,0,0,0,1.146-.489,2.041,2.041,0,0,1,2.192.269,3.776,3.776,0,0,1,.487,5.7" transform="translate(-89.39 -147.376)" fill="#fff"></path><path id="Path_39463" data-name="Path 39463" d="M97.344,246.881a8.9,8.9,0,0,1-.441-1.631c-.014-.577-.191-.848-.855-.861a4.952,4.952,0,0,1-1.97-.7,8.109,8.109,0,0,0,.18-1.373,8.486,8.486,0,0,0,1.583.965,6.826,6.826,0,0,0,1.423.448c.154.029.289.058.308.263a5.194,5.194,0,0,0,.368,1.4,6.918,6.918,0,0,0,.684,1.283l-1.279.2" transform="translate(-83.58 -215.279)" fill="#fff"></path></g></g></g></svg>