<svg xmlns="http://www.w3.org/2000/svg" xmlns:xlink="http://www.w3.org/1999/xlink" width="45" height="45" viewBox="0 0 45 45"><defs><clipPath id="clip-path"><rect id="Rectangle_8008" data-name="Rectangle 8008" width="45" height="45" transform="translate(-17923 -17342)" fill="#fff" stroke="#707070" stroke-width="1"></rect></clipPath><clipPath id="clip-path-2"><rect id="Rectangle_8007" data-name="Rectangle 8007" width="42.183" height="42.155" fill="none"></rect></clipPath></defs><g id="Mask_Group_19659" data-name="Mask Group 19659" transform="translate(17923 17342)" clip-path="url(#clip-path)"><g id="Group_20275" data-name="Group 20275" transform="translate(-17921.182 -17340.578)"><g id="Group_20274" data-name="Group 20274" clip-path="url(#clip-path-2)"><path id="Path_39294" data-name="Path 39294" d="M114.91.436c.82.583,1.721,1.03,2.579,1.549,1.882,1.138,3.869,2.11,5.647,3.411a20.661,20.661,0,0,1,8.56,14.3,21.2,21.2,0,0,1,.174,2.991c0,1.229,0,2.459,0,3.727a6.892,6.892,0,0,1,2.585-.5,6.688,6.688,0,0,1,5.426,10.56c-.311.462-.516.508-1.042.289-.333-.274-.366-.555-.087-1a6.672,6.672,0,0,0,.8-1.606,5.363,5.363,0,0,0-3.938-6.794c-.107-.024-.218-.018-.325-.039a5.331,5.331,0,0,0-1.718,10.523,5.552,5.552,0,0,0,3.418-.556c.446-.218.7-.144.929.23.161.563.085.758-.438,1.017a6.672,6.672,0,0,1-5.206.365c-.115-.038-.229-.08-.407-.142v1.643c0,.437,0,.875,0,1.312,0,.494-.168.76-.519.8-.419.049-.617-.21-.731-.567a.483.483,0,0,1-.081-.113c-.092-.718-.02-1.44-.041-2.16a4.109,4.109,0,0,1,0-.653,1.336,1.336,0,0,0-.655-1.449,3.952,3.952,0,0,1-.862-.974,6.806,6.806,0,0,1-.023-8.006,7.048,7.048,0,0,1,1.276-1.327.7.7,0,0,0,.271-.606c-.005-1.835.056-3.672-.018-5.5A18.387,18.387,0,0,0,129,14.8a19.4,19.4,0,0,0-4.564-6.61,20.912,20.912,0,0,0-4.065-2.976q-2.956-1.7-5.889-3.433a.807.807,0,0,1-.481-.9c.035-.245.217-.351.417-.441Z" transform="translate(-98.982 -0.379)" fill="#666"></path><path id="Path_39295" data-name="Path 39295" d="M15.194,88.133a.953.953,0,0,1-.43-.618,19.045,19.045,0,0,0-3.012-5.873,12.233,12.233,0,0,0-3.975-3.37,13.145,13.145,0,0,1-6.517-7.221,11.569,11.569,0,0,1-.716-2.979c-.082-.16.031-.348-.072-.5v-.493c.081-.253.2-.466.5-.5.562.016.785.246.838.834a11.726,11.726,0,0,0,3.468,7.482,12.791,12.791,0,0,0,3.111,2.2,14.593,14.593,0,0,1,5.913,6,22.859,22.859,0,0,1,1.626,3.678c.041.116.082.233.116.351.224.787-.045,1.109-.849,1.019" transform="translate(-0.41 -57.809)" fill="#666"></path><path id="Path_39296" data-name="Path 39296" d="M28.452.436h.411c.355.092.547.4.8.619q3.947,3.958,7.9,7.907c.106.107.216.21.317.322a.71.71,0,0,1,.061,1.06c-.5.3-.737.263-1.189-.189q-2.949-2.944-5.894-5.893-1.248-1.248-2.5-2.5a1.221,1.221,0,0,1-.4-.653A.558.558,0,0,1,27.96.993a.666.666,0,0,1,.492-.557" transform="translate(-24.279 -0.379)" fill="#666"></path><path id="Path_39297" data-name="Path 39297" d="M35.58,1.088,34.827.436H45.678c-.11.145-.289.234-.346.422-.03.1-.049.208-.174.238a.771.771,0,0,1-.2.028c-2.944.066-5.888.141-8.832.1a.85.85,0,0,1-.544-.137" transform="translate(-30.243 -0.379)" fill="#fefefe"></path><path id="Path_39298" data-name="Path 39298" d="M.972,20.464a.842.842,0,0,0-.5.425V13.407a.092.092,0,0,1,.118,0c.226.289.589.478.649.889.045,1.9.015,3.8.016,5.693,0,.209-.02.419-.285.476" transform="translate(-0.411 -11.623)" fill="#fefefd"></path><path id="Path_39299" data-name="Path 39299" d="M4.173.057a1.164,1.164,0,0,0-.408.576.749.749,0,0,1-.541.114C2.495.758,1.765.73,1.037.764A1.163,1.163,0,0,0,.622,1a1.883,1.883,0,0,0-.461.388.083.083,0,0,1-.1-.017C.062.938-.106.345.111.113S.926.058,1.358.058q1.407,0,2.815,0" transform="translate(0 0)" fill="#fefefe"></path><path id="Path_39300" data-name="Path 39300" d="M.472,74.151a.611.611,0,0,1,.072.5.4.4,0,0,1-.072-.012Z" transform="translate(-0.41 -64.392)" fill="#5b5b5b"></path><path id="Path_39301" data-name="Path 39301" d="M.472,10.286a.05.05,0,0,1,.069-.014.286.286,0,0,1,.006.434A.208.208,0,0,0,.472,10.7Z" transform="translate(-0.41 -8.913)" fill="#5b5b5b"></path><path id="Path_39302" data-name="Path 39302" d="M4.261,12.943c.186-.114.155-.3.156-.475q.005-2.93.011-5.861c.193-.013.292.134.4.246q6.394,6.39,12.781,12.788a2.737,2.737,0,0,1,.734,2.655,2.828,2.828,0,0,0,.262,2.029,2.688,2.688,0,0,0,2.914,1.359,2.74,2.74,0,0,0,2.191-2.411c.046-.5.046-.5.552-.563a2.758,2.758,0,0,0,2.422-2.138A2.683,2.683,0,0,0,25.4,17.619a2.391,2.391,0,0,0-1.858-.318A3.214,3.214,0,0,1,20.3,16.284c-.36-.356-.735-.7-1.07-1.079a.857.857,0,0,0-1.044-.32,2.387,2.387,0,0,1-.874-.867c.27-.477.249-.645-.145-1.04q-3.93-3.933-7.861-7.864c-.1-.1-.181-.2-.271-.3,3.223.034,6.444-.023,9.666-.088.085.115-.024.156-.088.162a18.528,18.528,0,0,1-2.361.022c2.762,1.654,5.752,3.272,8.591,5.134A19.591,19.591,0,0,1,31.624,17.7a20.648,20.648,0,0,1,2.066,6.674,28.942,28.942,0,0,1,.176,2.9c.047,1.463.012,2.929.013,4.394a1.439,1.439,0,0,1-.113.678,6.854,6.854,0,0,0-1.236,4.651,7.093,7.093,0,0,0,1.234,3.258,1.562,1.562,0,0,1,.135.756q0,1.946,0,3.892c0,.524.032.541.561.557.294.009.605-.074.873.128q0,.04,0,.081l-5.443-.005a.685.685,0,0,1-.1-.509q0-7.169-.006-14.339a1.311,1.311,0,0,1,.506-1.066,7.594,7.594,0,0,0,2.753-5.026,5.768,5.768,0,0,0-.1-1.96,2.813,2.813,0,0,0-2.455-2.213,2.764,2.764,0,0,0-2.978,1.893,11.737,11.737,0,0,1-3.089,4.83,10.653,10.653,0,0,1-2.384,1.662,2.858,2.858,0,0,0-1.229.992,2.2,2.2,0,0,0,1.764,3.371c.451.017.9-.006,1.356.007a1.045,1.045,0,0,1,1.159,1.179q.008,5.341,0,10.682c0,.174.03.361-.121.5H21.039a.383.383,0,0,1-.127-.331c-.025-1.051-.093-2.1-.173-3.146a45.77,45.77,0,0,0-.86-5.957c-.09-.429-.448-.507-.74-.684-.014-.133-.022-.267-.043-.4-.057-.366-.151-.7-.611-.735.641.045.975-.279.8-.826a18.988,18.988,0,0,0-4.411-7.722,12.793,12.793,0,0,0-3.211-2.393A12.04,12.04,0,0,1,6.6,18.823,11.8,11.8,0,0,1,5,13.623c-.031-.471-.219-.646-.736-.68" transform="translate(-3.7 -4.102)" fill="#fff"></path><path id="Path_39303" data-name="Path 39303" d="M131.09,149.111q.006-5.217.012-10.434c0-.288.005-.575,0-.863a.891.891,0,0,0-.956-.944c-.465-.008-.931,0-1.4-.007a2.318,2.318,0,0,1-1.026-4.373,11.987,11.987,0,0,0,2.833-1.938,10.931,10.931,0,0,0,2.844-4.4,3.163,3.163,0,0,1,2-2.17,2.952,2.952,0,0,1,3.825,2.436,7.3,7.3,0,0,1-2.633,6.763,1.587,1.587,0,0,0-.6,1.3c.016,4.779.009,9.558.01,14.337,0,.1.01.191.016.286-.085.287-.226.527-.551.573a.642.642,0,0,1-.68-.4,1.9,1.9,0,0,1-.115-.723q0-7.166,0-14.333a2.412,2.412,0,0,1,.934-1.96,6.355,6.355,0,0,0,2.288-3.875,4.949,4.949,0,0,0-.028-1.876c-.176-.85-.755-1.264-1.783-1.285a1.656,1.656,0,0,0-1.362,1.265,12.527,12.527,0,0,1-1.548,3.071,12.287,12.287,0,0,1-4.413,3.911,3.6,3.6,0,0,0-.534.306.923.923,0,0,0-.333,1.063.877.877,0,0,0,.806.658c.464.041.931.011,1.4.016a2.262,2.262,0,0,1,2.352,2.358q0,5.362,0,10.723a1.092,1.092,0,0,1-.1.6.636.636,0,0,1-.659.487c-.348-.023-.509-.262-.591-.571" transform="translate(-109.824 -107.536)" fill="#666"></path><path id="Path_39304" data-name="Path 39304" d="M140.483,157.65c0-3.726-.036-7.452.012-11.177a2.232,2.232,0,0,0-2.4-2.387c-.381.029-.767.007-1.15,0a1.045,1.045,0,0,1-1.058-.8,1.067,1.067,0,0,1,.59-1.268,13.218,13.218,0,0,0,2.822-1.885A12.317,12.317,0,0,0,142.716,135a1.985,1.985,0,0,1,1.255-1.406,1.013,1.013,0,0,1,.2-.021,1.839,1.839,0,0,1,.759,1.48,6.856,6.856,0,0,1-2.469,6.207,2.17,2.17,0,0,0-.807,1.745c.021,4.747,0,9.495.015,14.242a.645.645,0,0,1-.043.321,3.449,3.449,0,0,0-1.142.083" transform="translate(-117.967 -115.991)" fill="#fff"></path><path id="Path_39305" data-name="Path 39305" d="M179.138,157.408a.94.94,0,0,1-.083-.559c0-4.71.009-9.421-.011-14.131A2.142,2.142,0,0,1,179.9,141a6.857,6.857,0,0,0,2.46-4.687,7.316,7.316,0,0,0-.093-1.737,3.17,3.17,0,0,0-.581-1.16,1.675,1.675,0,0,1,1.973,1.449,6,6,0,0,1-2.191,5.661,2.82,2.82,0,0,0-1.054,2.313c.026,4.694.012,9.389.013,14.083,0,.218.011.437.018.656-.157-.243-.4-.156-.621-.164s-.456,0-.684,0" transform="translate(-155.48 -115.833)" fill="#fff"></path><path id="Path_39306" data-name="Path 39306" d="M275.932,204.052a5.128,5.128,0,0,1,4.095,3.089,5.217,5.217,0,0,1-.5,5.4.8.8,0,0,0-.057,1.04,2.511,2.511,0,0,1-.918.761.775.775,0,0,0-1-.089,3.674,3.674,0,0,1-1.539.491c-.031-.216.155-.271.281-.354a6.017,6.017,0,0,0,2.154-2.5.986.986,0,0,0,.1-.584,1.532,1.532,0,0,0,.643-1.5c-.014-.313-.008-.627,0-.941a1.544,1.544,0,0,0-.474-1.256,6.144,6.144,0,0,0-2.476-3.23c-.122-.085-.323-.111-.311-.329" transform="translate(-239.616 -177.197)" fill="#fff"></path><path id="Path_39307" data-name="Path 39307" d="M114.622,239.009c.576-.017.715.087.844.653a46.613,46.613,0,0,1,1.036,8.852q.01.307.02.614c-.148.434-.393.636-.722.565-.405-.087-.519-.378-.527-.763a45.117,45.117,0,0,0-1.033-9.106.682.682,0,0,1,.381-.815" transform="translate(-99.184 -207.552)" fill="#666"></path><path id="Path_39308" data-name="Path 39308" d="M111.329,31.414c0-1.739.019-3.478,0-5.217a20.941,20.941,0,0,0-2.606-10.109,20.5,20.5,0,0,0-4.24-5.277,25.534,25.534,0,0,0-4.37-3.013c-1.925-1.114-3.829-2.264-5.743-3.4a4.969,4.969,0,0,1-.79-.526c.758,0,1.516,0,2.274,0,.138,0,.306.077.412-.09l.087-.143c-.081.42.137.649.48.848,2.374,1.381,4.805,2.679,7.1,4.186A19.194,19.194,0,0,1,112.818,23.3c.228,2.114.061,4.243.1,6.364a.363.363,0,0,1-.16.348,7.706,7.706,0,0,0-1.43,1.4" transform="translate(-81.263 -3.161)" fill="#fff"></path><path id="Path_39309" data-name="Path 39309" d="M237,210.742c.3.072.126.245.069.374a6.083,6.083,0,0,1-2.333,2.769c-.1.064-.229.1-.277.232a5.112,5.112,0,0,1-4.339-1.1,5.416,5.416,0,0,1-1.632-6.295,5.476,5.476,0,0,1,5.614-3.361,1.959,1.959,0,0,1,.276.068,6.78,6.78,0,0,1,2.214,2.109,2.874,2.874,0,0,1,.585,1.349,5.493,5.493,0,0,1-1.46.01c-.219-.012-.282-.189-.3-.38-.023-.273,0-.547-.021-.82a.958.958,0,0,0-1.032-.986c-.547-.012-1.095-.015-1.641,0-.711.02-1.007.332-1.018,1.051,0,.205,0,.411,0,.616-.016.447-.093.527-.529.546-.246.01-.493,0-.739.007a.872.872,0,0,0-.945.952q-.021.9,0,1.806a.853.853,0,0,0,.911.938c.259.015.52,0,.78.009.42.02.5.1.522.513.012.26,0,.52.007.78a.816.816,0,0,0,.815.9,13.56,13.56,0,0,0,2.05,0,.9.9,0,0,0,.817-.886,7.221,7.221,0,0,0,.021-.82c.005-.314.141-.5.469-.484.375.019.765-.108,1.121.107" transform="translate(-198.064 -176.57)" fill="#fff"></path><path id="Path_39310" data-name="Path 39310" d="M229.965,280.1c-.37,0-.741-.022-1.109.007s-.47-.078-.466-.451c.02-1.629.007-3.259.006-4.888a7.685,7.685,0,0,0,1.453,1.422.3.3,0,0,1,.138.275q-.014,1.818-.022,3.636" transform="translate(-198.332 -238.605)" fill="#fff"></path><path id="Path_39311" data-name="Path 39311" d="M28.019,14.336a4.671,4.671,0,0,1,.841.839,1.185,1.185,0,0,0,.494,1.209c.541.482.992,1.058,1.575,1.5a3.905,3.905,0,0,0,3.281.772,1.732,1.732,0,0,1,2.224,1.76.99.99,0,0,1-.389.857c-.153-.058-.158-.212-.208-.333a2.069,2.069,0,0,0-2.3-1.318,3.964,3.964,0,0,1-2.749-.327,4.188,4.188,0,0,1-.852-.637Q23.4,12.123,16.874,5.589a1.174,1.174,0,0,1-.26-.315c-.055-.118-.024-.184.116-.179a10.966,10.966,0,0,1,1.439.04,1.411,1.411,0,0,0,.373.575q4.222,4.213,8.437,8.434c.412.412.543.435,1.04.192" transform="translate(-14.405 -4.421)" fill="#fff"></path><path id="Path_39312" data-name="Path 39312" d="M9.594,4.837H8.029a1.526,1.526,0,0,1-1.315,0c.121-.134.281-.079.425-.08.819-.005,1.637,0,2.456,0v.081" transform="translate(-5.83 -4.122)" fill="#faf2ee"></path><path id="Path_39313" data-name="Path 39313" d="M22.461,22.721A1.592,1.592,0,0,0,20.854,20.2,4.133,4.133,0,0,1,16.7,18.885c-.4-.414-.8-.824-1.22-1.218a.7.7,0,0,1-.159-1.013c.464-.266.64-.249,1.011.118.458.452.912.91,1.366,1.365a2.936,2.936,0,0,0,2.92.859,2.834,2.834,0,1,1,.72,5.606c-.3.015-.342.1-.352.373a2.828,2.828,0,1,1-5.608-.654,3.188,3.188,0,0,0-.98-3.157Q8.142,14.952,1.922,8.7C1.817,8.6,1.7,8.5,1.59,8.4c-.158-.27-.477-.4-.59-.711L.994,7.257c.053-.229.24-.317.425-.407a.528.528,0,0,1,.662.157c.1.11.213.213.32.32q6.535,6.536,13.075,13.067a4.153,4.153,0,0,1,1.231,4,1.5,1.5,0,1,0,2.938.5c.1-1.421.178-1.514,1.569-1.614a2.633,2.633,0,0,0,1.248-.562" transform="translate(-0.863 -5.899)" fill="#666"></path><path id="Path_39314" data-name="Path 39314" d="M25.265,21.539a1.514,1.514,0,0,1-1.413.655c-.94-.041-1.328.336-1.289,1.29a1.552,1.552,0,0,1-.858,1.554A1.505,1.505,0,0,1,20,24.9a1.539,1.539,0,0,1-.6-1.67,4.045,4.045,0,0,0-1.171-3.94Q11.6,12.652,4.97,6.016a.882.882,0,0,0-.747-.348c.11-.077.171-.224.328-.237H5.866c.109.122.212.25.327.365,4.248,4.251,8.516,8.482,12.735,12.762a4.049,4.049,0,0,0,3.924,1.258,2.086,2.086,0,0,1,2.414,1.722" transform="translate(-3.667 -4.717)" fill="#fff"></path><path id="Path_39315" data-name="Path 39315" d="M245.4,219c-.41,0-.821.016-1.231.005-.2-.005-.265.058-.257.255.013.314.014.63,0,.944a.983.983,0,0,1-1.049,1.017c-.629.009-1.259.011-1.888,0a.96.96,0,0,1-1.009-1c0-.055,0-.11,0-.164-.028-.337.153-.8-.075-.978-.213-.17-.652-.061-.991-.064-.773-.008-1.136-.358-1.141-1.119,0-.6-.007-1.2,0-1.806a.967.967,0,0,1,1.031-1.024c.315-.007.629-.009.944,0,.18.006.239-.061.234-.238-.01-.328-.01-.657,0-.985a.942.942,0,0,1,.945-.982c.683-.023,1.368-.023,2.052,0a.962.962,0,0,1,.947.99,8.784,8.784,0,0,1,0,.944c-.013.223.071.272.28.273a4.691,4.691,0,0,1,1.385.076,1.176,1.176,0,0,1,.549,1.109c-.013.517-.015,1.036,0,1.553a1.123,1.123,0,0,1-.726,1.2" transform="translate(-206.466 -184.831)" fill="#666"></path><path id="Path_39316" data-name="Path 39316" d="M247.148,224.995c0-.706,0-.706.693-.706.164,0,.329,0,.493,0a.972.972,0,0,0,1.015-.964,6.654,6.654,0,0,0,0-.9c-.017-.259.048-.372.333-.348.366.031.842-.114,1.073.068.247.194.069.69.08,1.054a.989.989,0,0,0,1.089,1.093c.014,0,.028,0,.041,0,.35.027.887-.155,1.007.072a3.071,3.071,0,0,1,.072,1.243c.006.2-.136.167-.255.168-.315,0-.63-.008-.944,0a.969.969,0,0,0-1.006,1.011c0,.041,0,.082,0,.123-.027.35.155.889-.072,1.008a3.119,3.119,0,0,1-1.244.07c-.16.005-.171-.088-.17-.209,0-.287,0-.575,0-.863a1.016,1.016,0,0,0-1.134-1.144c-.1,0-.192,0-.288,0-.787,0-.787,0-.787-.777" transform="translate(-214.621 -192.825)" fill="#f5f5f5"></path></g></g></g></svg>