<svg xmlns="http://www.w3.org/2000/svg" xmlns:xlink="http://www.w3.org/1999/xlink" width="45" height="45" viewBox="0 0 45 45"><defs><clipPath id="clip-path"><rect id="Rectangle_8062" data-name="Rectangle 8062" width="45" height="45" transform="translate(-17832 -17106)" fill="#fff" stroke="#707070" stroke-width="1"></rect></clipPath><clipPath id="clip-path-2"><rect id="Rectangle_7617" data-name="Rectangle 7617" width="33.173" height="44" fill="none"></rect></clipPath></defs><g id="Mask_Group_19682" data-name="Mask Group 19682" transform="translate(17832 17106)" clip-path="url(#clip-path)"><g id="Group_20314" data-name="Group 20314" transform="translate(-17827.641 -17105.5)"><g id="Group_19608" data-name="Group 19608" clip-path="url(#clip-path-2)"><path id="Path_37524" data-name="Path 37524" d="M23.038,0A11.417,11.417,0,0,1,24.88.593a5.7,5.7,0,0,1,2.255,1.99.651.651,0,0,0,.584.331,4.29,4.29,0,0,1,3.993,4.425,1.414,1.414,0,0,0,.362,1.069A4.972,4.972,0,0,1,30.3,16.022c-.493.232-.489.23-.223.726a14.3,14.3,0,0,1,1.661,7.138,14.118,14.118,0,0,1-2.84,8.378c-.621.839-1.221,1.694-1.842,2.533a5.465,5.465,0,0,0-1.091,3.362c.006,1.8-.005,3.608.008,5.412,0,.311-.045.431-.4.43q-6.442-.022-12.885,0c-.34,0-.42-.09-.415-.42.019-1.417,0-2.835.015-4.252,0-.37-.095-.361-.373-.211A12.535,12.535,0,0,1,9.76,40.168,4.73,4.73,0,0,1,3.63,35.8,10.734,10.734,0,0,0,.352,28.043a.752.752,0,0,1-.024-1.258A15.969,15.969,0,0,0,4.26,19.852a14.027,14.027,0,0,1,1.817-4.09c.142-.212.115-.318-.071-.489a5.006,5.006,0,0,1,.273-7.7.534.534,0,0,0,.233-.458,4.307,4.307,0,0,1,4.7-4.193.473.473,0,0,0,.529-.23A5.662,5.662,0,0,1,15.65.086c.066-.012.147.008.171-.086h1.461a4.581,4.581,0,0,1,1.984.559.45.45,0,0,0,.451-.013A5.208,5.208,0,0,1,21.577,0Z" transform="translate(0)" fill="#666"></path><path id="Path_37525" data-name="Path 37525" d="M28.385,165.912c.371-.211.738-.429,1.114-.629.161-.086.213-.174.093-.326a.278.278,0,0,1-.018-.039c-.181-.324-.29-.806-.561-.927s-.643.264-.965.434c-1.162.613-2.308,1.258-3.477,1.859a3.283,3.283,0,0,1-4.8-2.206,8.667,8.667,0,0,1-.132-1.408,11.436,11.436,0,0,0-2.936-7.11c-.279-.314-.3-.488-.009-.819A17.075,17.075,0,0,0,20.3,147.9a13.235,13.235,0,0,1,1.629-3.666c.13-.2.232-.267.476-.174a4.766,4.766,0,0,0,1.726.278q2.341-.007,4.682,0a2.2,2.2,0,0,1,2.4,2.4,7.3,7.3,0,0,1-.232,2.077c-.1.343-.2.29-.416.151-.374-.237-.762-.452-1.135-.692-.165-.106-.275-.132-.433.029q-1.217,1.243-2.461,2.46c-.178.173-.144.3-.033.474.287.46.559.928.857,1.426-.567.146-1.1.3-1.644.417-.212.046-.279.126-.277.338q.013,1.74,0,3.479c0,.216.075.292.282.338.54.119,1.074.27,1.64.415-.3.5-.574.973-.861,1.431a.316.316,0,0,0,.041.473c.83.81,1.647,1.633,2.461,2.459a.265.265,0,0,0,.4.043c.409-.262.835-.5,1.246-.755.18-.114.261-.113.31.122.1.461.239.913.332,1.374.047.235.158.291.38.289,1.145-.009,2.291-.008,3.436,0,.2,0,.3-.046.345-.267.116-.544.27-1.079.417-1.651.486.292.954.561,1.409.851a.333.333,0,0,0,.507-.047c.8-.822,1.611-1.629,2.428-2.432a.282.282,0,0,0,.052-.427c-.257-.4-.477-.814-.733-1.21-.132-.2-.109-.285.134-.337.46-.1.912-.239,1.374-.334.217-.045.272-.145.271-.351q-.011-1.718,0-3.436c0-.23-.071-.32-.3-.369-.529-.113-1.05-.264-1.625-.412.306-.513.587-1,.886-1.477a.263.263,0,0,0-.04-.4q-1.255-1.235-2.491-2.49a.265.265,0,0,0-.4-.043c-.47.3-.953.576-1.456.876a5.53,5.53,0,0,1-.241-3.238,2.019,2.019,0,0,1,1.945-1.542c1.718-.036,3.436-.012,5.154-.027.237,0,.278.161.362.3a13.3,13.3,0,0,1-.83,14.648c-.684.917-1.348,1.849-2,2.786a6.68,6.68,0,0,0-1.135,3.93c0,.944-.012,1.889-.019,2.833a.8.8,0,0,1-.57.138q-4.807,0-9.613,0c-.572,0-.611-.042-.6-.609a23.586,23.586,0,0,1,.043-2.436" transform="translate(-14.622 -127.75)" fill="#fff"></path><path id="Path_37526" data-name="Path 37526" d="M73.35,17.9q-.005.643-.011,1.286a.84.84,0,0,0,.334.652,2.487,2.487,0,0,1,.518.671c.1.2.076.361-.184.406-.287.023-.562-.1-.853-.052A2.063,2.063,0,0,0,71.512,22.1a.949.949,0,0,1-.835.617c-1.446.2-2.888.427-4.329.661a.705.705,0,0,1-.754-.269,1.881,1.881,0,0,0-1.13-.729.621.621,0,0,1-.5-.474c-.325-1.128-.614-2.266-.936-3.395a.643.643,0,0,1,.24-.678,1.99,1.99,0,0,0,.023-2.822,2.1,2.1,0,0,0-2.337-.446,1.989,1.989,0,0,0-1.129,2.083,1.071,1.071,0,0,1-.421,1.14c-1.169,1.01-2.3,2.059-3.451,3.093a.669.669,0,0,1-.756.083,2.018,2.018,0,1,0,1.444,2.113,1.135,1.135,0,0,0,0-.385,1.115,1.115,0,0,1,.472-1.231c1.144-.995,2.252-2.031,3.392-3.032a.922.922,0,0,1,1.333.358c.369,1.175.65,2.374.975,3.562.075.274-.107.418-.268.585a2.005,2.005,0,0,0,.424,3.165,1.966,1.966,0,0,0,2.789-.8,1.274,1.274,0,0,1,1.144-.795c1.348-.174,2.69-.4,4.032-.614a.827.827,0,0,1,.9.317,1.94,1.94,0,0,0,1.878.7.866.866,0,0,1,.465-.012.226.226,0,0,1,.02.344,2.909,2.909,0,0,1-1.365,1.244c-1.431.006-2.861.007-4.292.02a3.807,3.807,0,0,0-2.367.738,3.591,3.591,0,0,0-1.442,3.138c.013.379-.086.517-.471.47-.3-.036-.665.089-.881-.048-.244-.155-.086-.553-.106-.842a3.611,3.611,0,0,0-2.747-3.331,5.075,5.075,0,0,0-1.147-.127c-1.6,0-3.206.023-4.808-.009A3.391,3.391,0,0,1,51.3,24.274a3.454,3.454,0,0,1,.712-3.857,3.228,3.228,0,0,1,1.55-.952c.208-.058.288-.114.219-.345-.089-.3-.131-.614-.2-.922-.014-.066,0-.186-.069-.181-.528.035-.179-.314-.146-.412a2.865,2.865,0,0,1,2.6-1.9c.205-.008.286.021.232.258-.069.305-.086.622-.131.932-.027.183.033.273.227.244a.3.3,0,0,1,.043,0,2.86,2.86,0,0,0,1.02-.026c.357-.148.155-.6.238-.913a4.3,4.3,0,0,1,5.809-3.06,4.13,4.13,0,0,1,2.708,3.607c.035.308.095.444.418.4a3.251,3.251,0,0,1,.472,0c.651,0,.643,0,.553-.666a5.934,5.934,0,0,0-1.536-3.281,4.071,4.071,0,0,1,4.391.69.834.834,0,0,1,.063.059c.174.189.467.366.488.571.023.223-.354.253-.552.365-.3.169-.393.3-.119.588.217.224.335.59.587.722s.492-.26.788-.3c.07-.009.138-.031.207-.047a.351.351,0,0,1,.43.079A3.029,3.029,0,0,1,73.35,17.9" transform="translate(-45.235 -11.37)" fill="#fff"></path><path id="Path_37527" data-name="Path 37527" d="M126.968,196.987l1.29.529a3.176,3.176,0,0,1,1.8,1.792,9.036,9.036,0,0,1,.523,1.29,2.749,2.749,0,0,1,.256,1.823c-.013.227-.076.451-.1.679-.308.207-.29.585-.452.87-.089.157-.152.329-.227.495a3.267,3.267,0,0,1-1.8,1.788l-1.292.532c-.327.3-.753.226-1.133.266a3.04,3.04,0,0,1-1.373-.183,11.112,11.112,0,0,0-1.356-.611,3.549,3.549,0,0,1-1.787-1.795,7.626,7.626,0,0,0-.628-1.347,7.543,7.543,0,0,1-.071-2.443c.255-.093.262-.344.348-.544l.352-.817a3.588,3.588,0,0,1,1.786-1.8,13,13,0,0,0,1.355-.608,3.96,3.96,0,0,1,2.224-.094.636.636,0,0,1,.286.177" transform="translate(-106.934 -174.478)" fill="#fff"></path><path id="Path_37528" data-name="Path 37528" d="M121.246,337.843c0,.83.021,1.66,0,2.489-.01.351.111.428.44.427,3.434-.011,6.868-.007,10.3-.007.006.343-.009.688.025,1.028s-.068.457-.436.453c-1.875-.021-3.75-.009-5.625-.009-1.46,0-2.92-.008-4.38.006-.294,0-.39-.071-.387-.378.015-1.231,0-2.462,0-3.693,0-.106-.055-.231.063-.316" transform="translate(-107.483 -299.681)" fill="#fff"></path><path id="Path_37529" data-name="Path 37529" d="M245.452,70.859c.254-.04.154-.181.081-.3a3.589,3.589,0,0,0-.666-.781c-.175-.165-.256-.342-.089-.56.1.167.27.142.421.158a3.59,3.59,0,0,1,3.179,3.106,3.63,3.63,0,0,1-2.505,3.849,4.068,4.068,0,0,1-1.607.187,5.707,5.707,0,0,0,1.16-1.112.743.743,0,0,0,.212-.453c.026-.205.218-.251.348-.349a2.056,2.056,0,0,0-.188-3.457c-.127-.076-.314-.089-.346-.284" transform="translate(-216.674 -61.396)" fill="#fff"></path><path id="Path_37530" data-name="Path 37530" d="M237.348,40.574a4.636,4.636,0,0,0-1.035-1.853.583.583,0,0,0-.436-.214,2.794,2.794,0,0,1,3.583,2.472,4.551,4.551,0,0,0-2.112-.4" transform="translate(-209.233 -34.041)" fill="#fff"></path><path id="Path_37531" data-name="Path 37531" d="M155.147,286.085c.162-.142.335-.013.483.014a5.969,5.969,0,0,0,2.023-.1c-.11.441-.236.88-.324,1.326-.044.22-.147.288-.348.266a.72.72,0,0,0-.086,0c-1.519.018-1.519.019-1.748-1.508" transform="translate(-137.622 -253.696)" fill="#fff"></path><path id="Path_37532" data-name="Path 37532" d="M190.576,199.616a5.837,5.837,0,0,0-1.8-1.792c.377-.229.763-.445,1.129-.69a.327.327,0,0,1,.505.07c.313.35.846.64.92,1.026s-.413.8-.639,1.209c-.034.062-.079.118-.118.177" transform="translate(-167.456 -174.787)" fill="#fff"></path><path id="Path_37533" data-name="Path 37533" d="M157.644,186.66a4.894,4.894,0,0,0-2.277-.055c-.086.022-.163.053-.233-.028q.147-.646.293-1.293a.256.256,0,0,1,.3-.229q.622.019,1.244,0a.288.288,0,0,1,.346.275c.091.447.217.887.329,1.329" transform="translate(-137.611 -164.151)" fill="#fff"></path><path id="Path_37534" data-name="Path 37534" d="M209.473,233.734c-.239-.115-.081-.321-.056-.442a4.93,4.93,0,0,0-.1-2.06c.442.113.88.242,1.326.332.235.047.316.156.286.377a.99.99,0,0,0,0,.128c0,1.442,0,1.442-1.455,1.665" transform="translate(-185.672 -205.112)" fill="#fff"></path><path id="Path_37535" data-name="Path 37535" d="M123,197.79a7.4,7.4,0,0,0-1.786,1.8c-.235-.392-.463-.788-.709-1.173a.266.266,0,0,1,.049-.4c.3-.283.6-.576.878-.881a.287.287,0,0,1,.439-.04c.37.243.752.466,1.129.7" transform="translate(-106.833 -174.756)" fill="#fff"></path><path id="Path_37536" data-name="Path 37536" d="M121.582,265.44a7.325,7.325,0,0,0,1.787,1.8c-.377.23-.762.449-1.128.7a.291.291,0,0,1-.465-.074c-.3-.4-.97-.62-.921-1.13.043-.448.47-.859.728-1.286" transform="translate(-107.201 -235.457)" fill="#fff"></path><path id="Path_37537" data-name="Path 37537" d="M109.67,231.886a.157.157,0,0,1,.141.211,5.349,5.349,0,0,0,.006,2.046.193.193,0,0,1-.076.186c-.014,0-.028,0-.042,0-1.477-.261-1.587-.409-1.438-1.9.015-.146.049-.235.206-.269.4-.085.8-.182,1.2-.274" transform="translate(-95.988 -205.693)" fill="#fff"></path><path id="Path_37538" data-name="Path 37538" d="M188.772,267.251a6.078,6.078,0,0,0,1.8-1.788c.237.387.46.784.715,1.159.129.19.074.3-.068.432-.289.274-.574.553-.843.846a.287.287,0,0,1-.435.056c-.381-.246-.777-.471-1.166-.7" transform="translate(-167.449 -235.477)" fill="#fff"></path><path id="Path_37539" data-name="Path 37539" d="M85.558,32.2a2.186,2.186,0,0,1,1.381,2.819,2.349,2.349,0,0,1-1.2,1.271,2.161,2.161,0,0,1-2.607-.831.312.312,0,0,0-.365-.124q-2.415.377-4.834.735a.392.392,0,0,0-.358.3,2.1,2.1,0,0,1-1.98,1.5,2.153,2.153,0,0,1-2.045-1.3,2.132,2.132,0,0,1,.569-2.458.346.346,0,0,0,.12-.4c-.329-1.183-.642-2.37-.968-3.554a.933.933,0,0,0-1.1-.32c-1.268,1.138-2.528,2.284-3.8,3.416a.418.418,0,0,0-.132.484,2.149,2.149,0,1,1-4.223.358,2.12,2.12,0,0,1,2.823-1.841.524.524,0,0,0,.634-.119q1.8-1.657,3.637-3.277a.49.49,0,0,0,.173-.583,2.133,2.133,0,0,1,1.235-2.467,2.179,2.179,0,0,1,2.654.782,2.119,2.119,0,0,1-.286,2.708.548.548,0,0,0-.173.663c.316,1.1.608,2.2.9,3.307a.432.432,0,0,0,.388.375,1.852,1.852,0,0,1,1.257.816.411.411,0,0,0,.459.207c1.609-.259,3.22-.506,4.831-.755.129-.02.224-.032.292-.188A2.151,2.151,0,0,1,85.558,32.2" transform="translate(-56.78 -22.739)" fill="#666"></path><path id="Path_37540" data-name="Path 37540" d="M199.385,70.862c0,.731,0,.731-.734.731-.717,0-.717,0-.717-.709,0-.739,0-.739.737-.739.714,0,.714,0,.714.717" transform="translate(-175.576 -62.222)" fill="#666"></path><path id="Path_37541" data-name="Path 37541" d="M115.685,102.07c.732,0,.732,0,.732.746,0,.7,0,.7-.724.7s-.726,0-.726-.739c0-.71,0-.71.719-.71" transform="translate(-101.98 -90.54)" fill="#666"></path><path id="Path_37542" data-name="Path 37542" d="M141.326,214.3a3.6,3.6,0,1,1-3.62-3.592,3.631,3.631,0,0,1,3.62,3.592" transform="translate(-118.971 -186.91)" fill="#666"></path><path id="Path_37543" data-name="Path 37543" d="M243.455,97.269a.714.714,0,1,1,.728-.7.742.742,0,0,1-.728.7" transform="translate(-215.334 -85.015)" fill="#fff"></path><path id="Path_37544" data-name="Path 37544" d="M78.245,96.577a.7.7,0,1,1-1.408-.031.7.7,0,1,1,1.408.031" transform="translate(-68.157 -85.023)" fill="#fff"></path><path id="Path_37545" data-name="Path 37545" d="M141.376,39.814a.7.7,0,0,1-.692-.721.7.7,0,1,1,1.406.023.7.7,0,0,1-.715.7" transform="translate(-124.793 -34.056)" fill="#fff"></path><path id="Path_37546" data-name="Path 37546" d="M161.2,109.382a.7.7,0,0,1-1.41.007.7.7,0,0,1,1.41-.007" transform="translate(-141.745 -96.405)" fill="#fff"></path><path id="Path_37547" data-name="Path 37547" d="M149.074,223.557a2.153,2.153,0,0,1,.036,4.307,2.153,2.153,0,1,1-.036-4.307" transform="translate(-130.334 -198.304)" fill="#fff"></path></g></g></g></svg>