<svg xmlns="http://www.w3.org/2000/svg" xmlns:xlink="http://www.w3.org/1999/xlink" width="45" height="45" viewBox="0 0 45 45"><defs><clipPath id="clip-path"><rect id="Rectangle_8026" data-name="Rectangle 8026" width="45" height="45" transform="translate(-17809 -17128)" fill="#fff" stroke="#707070" stroke-width="1"></rect></clipPath><clipPath id="clip-path-2"><rect id="Rectangle_8025" data-name="Rectangle 8025" width="42.989" height="43.247" fill="none"></rect></clipPath></defs><g id="Mask_Group_19667" data-name="Mask Group 19667" transform="translate(17809 17128)" clip-path="url(#clip-path)"><g id="Group_20287" data-name="Group 20287" transform="translate(-17806.99 -17127.123)"><g id="Group_20286" data-name="Group 20286" clip-path="url(#clip-path-2)"><path id="Path_39407" data-name="Path 39407" d="M14.989,104.783q-2.415,0-4.831,0c-.712,0-.953-.237-.954-.939,0-1.776.006-3.552-.005-5.328,0-.451.1-.816.579-.939.182-.046.147-.157.147-.269,0-.482.014-.964-.006-1.445a2.256,2.256,0,0,0-.845-1.632c-1.5-1.325-2.981-2.671-4.492-3.982a4.537,4.537,0,0,1-1.459-2.37Q1.673,82.327.154,76.791a2.921,2.921,0,0,1,1.118-3.422.4.4,0,0,0,.168-.378,2.9,2.9,0,0,1,2.414-2.976,3,3,0,0,1,3.278,2.159C8.142,75.141,9.18,78.1,10.2,81.061a.687.687,0,0,0,.332.394q3.074,1.792,6.139,3.6a6.456,6.456,0,0,1,3.368,5.878c.01,2.062,0,4.124,0,6.186,0,.245-.018.442.306.529a.629.629,0,0,1,.418.679c0,1.9.006,3.793,0,5.689,0,.509-.3.765-.851.767-1.64,0-3.281,0-4.921,0" transform="translate(0 -61.537)" fill="#666"></path><path id="Path_39408" data-name="Path 39408" d="M189.747,104.754q-2.415,0-4.831,0c-.718,0-.959-.234-.96-.933,0-1.791.005-3.582,0-5.373,0-.44.119-.779.573-.9.266-.071.148-.264.148-.4q.012-3.093.005-6.186a6.506,6.506,0,0,1,3.432-5.98q3.011-1.766,6.027-3.524a.839.839,0,0,0,.4-.5q1.548-4.487,3.113-8.968a2.942,2.942,0,0,1,3.242-2,2.89,2.89,0,0,1,2.388,2.91.52.52,0,0,0,.225.487,2.831,2.831,0,0,1,1.108,3.186c-1.021,3.844-2.056,7.683-3.081,11.526a3.888,3.888,0,0,1-1.217,1.96c-1.489,1.314-2.953,2.658-4.462,3.949a2.651,2.651,0,0,0-1.062,2.355,5.921,5.921,0,0,1,0,.677c-.009.27-.042.508.34.6.279.067.383.359.383.654,0,1.9.005,3.793,0,5.689,0,.513-.3.772-.845.773-1.64,0-3.281,0-4.921,0" transform="translate(-161.745 -61.508)" fill="#666"></path><path id="Path_39409" data-name="Path 39409" d="M75.791,6.944A6.906,6.906,0,0,1,80.04.7,6.922,6.922,0,0,1,87.811,1.87c.263.222.386.224.639,0a7.206,7.206,0,0,1,11.987,5.917,7.039,7.039,0,0,1-2.08,4.575q-4.774,4.8-9.574,9.579c-.484.484-.821.482-1.307,0q-4.774-4.77-9.543-9.545a7.368,7.368,0,0,1-2.142-5.444" transform="translate(-66.641 0)" fill="#666"></path><path id="Path_39410" data-name="Path 39410" d="M29.125,125.519c0,1.129-.008,2.258.006,3.387,0,.256-.069.323-.323.322q-3.3-.015-6.592,0c-.255,0-.328-.067-.324-.322a13.674,13.674,0,0,0-.038-1.758,3.627,3.627,0,0,0-1.307-2.346c-1.535-1.353-3.057-2.722-4.592-4.076a2.722,2.722,0,0,1-.857-1.392c-1.014-3.815-2.047-7.624-3.065-11.438a1.414,1.414,0,0,1,1.506-1.883,1.4,1.4,0,0,1,1.214.953c.763,2.291,1.5,4.592,2.246,6.888a.552.552,0,0,1-.068.427,2.863,2.863,0,0,0,1.2,3.813c1.307.769,2.624,1.521,3.939,2.276a.737.737,0,0,0,1.1-.189.727.727,0,0,0-.364-1.054c-1.323-.771-2.655-1.526-3.977-2.3a1.414,1.414,0,0,1-.667-1.741,1.428,1.428,0,0,1,1.56-.954,1.583,1.583,0,0,1,.626.238c2.086,1.222,4.183,2.424,6.255,3.671a4.979,4.979,0,0,1,2.523,4.452c.014,1.008,0,2.017,0,3.025" transform="translate(-10.527 -93.202)" fill="#fefefe"></path><path id="Path_39411" data-name="Path 39411" d="M92.5,314.636c-1.325,0-2.649-.009-3.974.007-.294,0-.374-.074-.369-.369.017-1.219.015-2.439,0-3.658,0-.256.068-.323.323-.322q4.019.014,8.037,0c.255,0,.325.067.323.322q-.02,1.851,0,3.7c0,.256-.068.325-.323.322-1.34-.013-2.679-.006-4.019-.006" transform="translate(-77.511 -272.835)" fill="#fefefe"></path><path id="Path_39412" data-name="Path 39412" d="M29.659,91.62c-.341.1-.72.33-.918.224S28.5,91.3,28.4,91q-.862-2.654-1.718-5.31a2.931,2.931,0,0,0-2.551-2.17c-.28-.038-.271-.154-.228-.349a1.434,1.434,0,0,1,1.264-1.112,1.563,1.563,0,0,1,1.57,1.115q1.14,3.3,2.28,6.592c.211.609.419,1.219.638,1.856" transform="translate(-21.002 -72.149)" fill="#fefefe"></path><path id="Path_39413" data-name="Path 39413" d="M201.825,125.169a32.469,32.469,0,0,1,.081-3.636,4.769,4.769,0,0,1,2.319-3.488c2.133-1.289,4.292-2.536,6.447-3.787a1.442,1.442,0,1,1,1.46,2.486c-1.318.78-2.652,1.532-3.976,2.3-.468.271-.6.659-.379,1.048a.687.687,0,0,0,.973.269c1.448-.825,2.908-1.632,4.318-2.518a2.787,2.787,0,0,0,.986-3.547.9.9,0,0,1-.038-.724c.71-2.167,1.407-4.337,2.112-6.506a1.524,1.524,0,0,1,1.848-1.1,1.447,1.447,0,0,1,.926,1.88c-1.018,3.814-2.046,7.624-3.059,11.439a2.661,2.661,0,0,1-.841,1.352c-1.522,1.345-3.029,2.708-4.56,4.043a3.8,3.8,0,0,0-1.393,3.091c.007.331-.024.665.008.993s-.1.384-.4.382q-3.228-.02-6.457,0c-.331,0-.388-.1-.383-.4.019-1.114.007-2.228.007-3.582" transform="translate(-177.446 -93.125)" fill="#fefefe"></path><path id="Path_39414" data-name="Path 39414" d="M200.24,310.3c1.325,0,2.649.007,3.974-.006.261,0,.362.039.357.336-.02,1.219-.016,2.438,0,3.658,0,.262-.041.358-.336.356q-4-.02-7.992,0c-.261,0-.362-.039-.357-.336q.029-1.829,0-3.658c-.006-.322.115-.356.384-.354,1.324.012,2.649.005,3.974.005" transform="translate(-172.235 -272.833)" fill="#fefefe"></path><path id="Path_39415" data-name="Path 39415" d="M284.254,91.624c.994-2.863,1.974-5.693,2.959-8.52a1.494,1.494,0,0,1,1.509-1.05A1.432,1.432,0,0,1,290,83.144c.054.218.062.334-.241.373a2.873,2.873,0,0,0-2.505,2.093q-.971,2.945-1.9,5.9c-.105.335-.222.418-.536.261a2.969,2.969,0,0,0-.563-.149" transform="translate(-249.939 -72.146)" fill="#fefefe"></path><path id="Path_39416" data-name="Path 39416" d="M93.578,12.131a5.7,5.7,0,0,1,4.12,1.738c.933.929.995.921,1.946,0a5.584,5.584,0,0,1,5.809-1.482,5.46,5.46,0,0,1,3.991,4.458,5.591,5.591,0,0,1-1.663,5.232q-4.147,4.154-8.3,8.3c-.263.262-.5.739-.811.713-.291-.025-.554-.455-.818-.718-2.779-2.776-5.567-5.544-8.33-8.335a5.763,5.763,0,0,1,1.094-9.1,5.535,5.535,0,0,1,2.963-.8" transform="translate(-77.18 -10.647)" fill="#fefefe"></path><path id="Path_39417" data-name="Path 39417" d="M141.146,51.051c-.421,0-.842,0-1.264,0-.667,0-.91-.252-.913-.934,0-.542-.02-1.084.007-1.624.015-.3-.091-.347-.355-.338-.571.02-1.143.012-1.715,0a.737.737,0,0,1-.827-.837q-.009-1.331,0-2.663a.735.735,0,0,1,.83-.833c.587-.007,1.174-.011,1.76,0,.229.006.312-.05.3-.3-.018-.586-.011-1.173,0-1.76a.735.735,0,0,1,.824-.839q1.354-.011,2.708,0a.728.728,0,0,1,.8.818c.008.587.016,1.174,0,1.76-.009.266.083.323.329.316.571-.017,1.143-.01,1.715,0s.848.269.851.858q.008,1.309,0,2.618a.747.747,0,0,1-.853.857c-.572.006-1.144.013-1.715,0-.249-.008-.336.056-.327.318.02.571.01,1.143.005,1.715-.005.59-.266.855-.849.862-.436.006-.872,0-1.309,0" transform="translate(-119.649 -35.989)" fill="#666"></path><path id="Path_39418" data-name="Path 39418" d="M150.819,58.852c0-.3.009-.6,0-.9a.714.714,0,0,0-.768-.756q-.924-.018-1.848,0c-.218,0-.269-.063-.277-.277-.044-1.174-.051-1.174,1.134-1.174.316,0,.631.006.947,0a.732.732,0,0,0,.814-.8c.009-.586.013-1.173,0-1.758-.007-.241.043-.33.312-.334,1.139-.015,1.139-.025,1.139,1.125,0,.331-.008.662,0,.992a.723.723,0,0,0,.792.779c.6.01,1.2.014,1.8,0,.24-.007.294.069.3.3.024,1.15.032,1.15-1.112,1.15-.316,0-.631,0-.947,0a.738.738,0,0,0-.836.827c-.007.571-.014,1.143,0,1.713.008.259-.036.359-.334.359-1.117,0-1.117.014-1.117-1.1,0-.045,0-.09,0-.135" transform="translate(-130.053 -46.464)" fill="#fefefe"></path></g></g></g></svg>