<svg xmlns="http://www.w3.org/2000/svg" xmlns:xlink="http://www.w3.org/1999/xlink" width="45" height="45" viewBox="0 0 45 45"><defs><clipPath id="clip-path"><rect id="Rectangle_8014" data-name="Rectangle 8014" width="45" height="45" transform="translate(-18087 -17208)" fill="#fff" stroke="#707070" stroke-width="1"></rect></clipPath><clipPath id="clip-path-2"><rect id="Rectangle_8013" data-name="Rectangle 8013" width="42.806" height="42.805" fill="none"></rect></clipPath></defs><g id="Mask_Group_19663" data-name="Mask Group 19663" transform="translate(18087 17208)" clip-path="url(#clip-path)"><g id="Group_20282" data-name="Group 20282" transform="translate(-18086 -17207)"><g id="Group_20281" data-name="Group 20281" clip-path="url(#clip-path-2)"><path id="Path_39341" data-name="Path 39341" d="M17.819,22.156A5.388,5.388,0,0,0,19.3,18.612c.047-3.375.019-6.751.031-10.126,0-.209-.089-.261-.253-.315A2.461,2.461,0,0,1,17.5,6.637c-.232-.6-.491-1.192-.716-1.795a2.911,2.911,0,0,1,.637-3.186c.019-.021.04-.042.06-.062C19.1-.032,18.9.021,21.149.038A7.745,7.745,0,0,0,22.268.031a3.818,3.818,0,0,1,3.013,1.1,2.5,2.5,0,0,1,.782,2.835c-.313.86-.661,1.709-1.013,2.554A1.953,1.953,0,0,1,23.74,7.679c-.194.057-.282.106-.282.328.007,4.036,0,8.073.008,12.109a.542.542,0,0,0,.741.575c.4-.094.8-.224,1.21-.3a.5.5,0,0,0,.458-.457q.63-3.075,1.289-6.144a3.291,3.291,0,0,1,4.707-2.377,21.733,21.733,0,0,1,5.6,3.4A15.5,15.5,0,0,1,42.689,25.2a33.208,33.208,0,0,1,0,5.593,5.427,5.427,0,0,1-.529,1.851.789.789,0,0,0-.02.647,8.816,8.816,0,0,1,.3,5.653,6.6,6.6,0,0,1-1.364,2.367,4.085,4.085,0,0,1-4.724,1.161c-.908-.35-1.817-.7-2.712-1.08a16.893,16.893,0,0,0-6.866-1.369A3.2,3.2,0,0,1,23.5,37.249a3.251,3.251,0,0,1,.846-2.7,7.757,7.757,0,0,0,1.66-3.218,9.17,9.17,0,0,0,.221-2.308.628.628,0,0,0-.182-.415,5.009,5.009,0,0,1-1.191-3.412c.007-.255-.032-.35-.314-.339-.631.024-1.264,0-1.9.009a.709.709,0,0,0-.818.695,5.17,5.17,0,0,1-1.25,2.735c-.136.146-.086.277-.061.433a10.484,10.484,0,0,1-3.582,10.1A10.3,10.3,0,0,1,10.2,41.407c-.517.015-1.035.025-1.551,0a8,8,0,0,0-4.258.992,2.816,2.816,0,0,1-3.233-.224,2.728,2.728,0,0,1-1.14-2.261c-.007-4.97-.053-9.941.015-14.91A14.463,14.463,0,0,1,14.41,11.073,2.07,2.07,0,0,1,16.566,13.2a37.534,37.534,0,0,0,.154,4.6,19.632,19.632,0,0,0,1.1,4.349" transform="translate(0 0)" fill="#666"></path><path id="Path_39342" data-name="Path 39342" d="M156.706,98.932c.551.568,1.066,1.129,1.616,1.653a3.608,3.608,0,0,0,1.579.842,2.587,2.587,0,0,1,1.774,1.5c.118.265.058.361-.225.376a2.937,2.937,0,0,1-1.261-.221c-1-.4-2-.791-2.994-1.2a17.34,17.34,0,0,0-6.881-1.329A1.9,1.9,0,0,1,148.4,99.5a1.858,1.858,0,0,1,.355-2.151,8.987,8.987,0,0,0,2.156-5.064c.012-.126.04-.251.068-.424a7.521,7.521,0,0,1,2.58,3.247,21.6,21.6,0,0,1,.778,2.547c.072.257.157.325.44.241.987-.293.966-.272.7-1.294a10.419,10.419,0,0,0-2.173-4.483,11.337,11.337,0,0,0-1.982-1.715,3.794,3.794,0,0,1-1.619-4.169q1.072-5.049,2.125-10.1a1.968,1.968,0,0,1,3.013-1.487,22.05,22.05,0,0,1,4.762,2.822,14.146,14.146,0,0,1,5.068,9.7,25.291,25.291,0,0,1,0,5.332,5.389,5.389,0,0,1-3.343,4.427c-1.433.656-2.894,1.251-4.342,1.874-.092.039-.181.083-.282.129" transform="translate(-123.366 -61.9)" fill="#fff"></path><path id="Path_39343" data-name="Path 39343" d="M18,80.445a5.532,5.532,0,0,1,2.137-3.969c.2-.148.245-.239.092-.47-.635-.955-.629-.967-1.463-.186a6.551,6.551,0,0,0-1.854,3.051c-.039.138-.075.276-.114.414,0,.009-.021.014-.07.043a4.554,4.554,0,0,1-1.448-1.583c-.13-.233-.236-.251-.465-.139-1.022.5-1.023.492-.351,1.419A6.713,6.713,0,0,0,16.4,80.78a1.308,1.308,0,0,1,.5.563q.728,1.488,1.478,2.964a4.2,4.2,0,0,0,5.495,2.081c.158-.062.3-.176.414.078.458.987,1.012,1.929,1.389,2.956a.444.444,0,0,1-.234.64c-1.065.651-2.112,1.331-3.162,2.006A10.007,10.007,0,0,0,18.061,98c-.012.041-.044.1-.027.123.251.39.72.313,1.073.492.234.118.242-.124.291-.254.181-.482.36-.966.524-1.455.079-.237.2-.29.449-.243a1.769,1.769,0,0,1,1.514,1.218,2.45,2.45,0,0,0,1.44,1.407,8.766,8.766,0,0,1-2.707,1.831,9.262,9.262,0,0,1-3.761.791c-.89,0-1.783-.017-2.67.037a8.939,8.939,0,0,0-3.506,1.092A1.543,1.543,0,0,1,8.3,101.567c0-4.711-.016-9.422,0-14.132a13.1,13.1,0,0,1,11.41-13,13.791,13.791,0,0,1,1.417-.1c.735-.023.953.2.963.926.017,1.191-.03,2.382.062,3.574a19.255,19.255,0,0,0,1.306,5.721c.162.4.055.532-.325.653a2.835,2.835,0,0,1-3.381-1.271c-.313-.547-.568-1.126-.863-1.683a.5.5,0,0,1,0-.448,3.147,3.147,0,0,1,1.737-1.868c.234-.1.327-.2.2-.44a1.488,1.488,0,0,1-.084-.243c-.28-.837-.279-.834-1.071-.385A5.207,5.207,0,0,0,18,80.445" transform="translate(-6.9 -61.874)" fill="#fff"></path><path id="Path_39344" data-name="Path 39344" d="M83.295,179.68c.695-1.177,3.081-3.007,5.26-4.024a8.821,8.821,0,0,1-.583,4.746A10.284,10.284,0,0,1,87,182.213a.412.412,0,0,1-.568.186,1.277,1.277,0,0,1-.868-.768,2.789,2.789,0,0,0-2.156-1.888.415.415,0,0,1-.11-.064" transform="translate(-69.337 -146.221)" fill="#fff"></path><path id="Path_39345" data-name="Path 39345" d="M218.538,205.675a5.774,5.774,0,0,1-1.3,6.228c-.12-.028-.117-.143-.155-.228a3.9,3.9,0,0,0-2.572-2.241,2.46,2.46,0,0,1-1.259-.725c.968-.419,1.906-.819,2.841-1.231a7.048,7.048,0,0,0,2.442-1.8" transform="translate(-177.519 -171.21)" fill="#fff"></path><path id="Path_39346" data-name="Path 39346" d="M122.479,105.659c0,.848,0,1.623,0,2.4a1.917,1.917,0,0,0,2.433,1.93c.3-.064.676-.322.878-.133.16.149-.071.555-.126.847-.137.737-.143.735-.9.735h-.215a6.131,6.131,0,0,1-1.416-.023c-.484-.118-.51-.725-.817-1.066a5.366,5.366,0,0,0-1.512-1.257c-.18-.092-.245-.173-.158-.395a6.965,6.965,0,0,0,.439-2.1c.01-.152.029-.268.191-.343.387-.179.765-.378,1.2-.6" transform="translate(-100.396 -87.953)" fill="#fff"></path><path id="Path_39347" data-name="Path 39347" d="M116.816,23.246c-.291.724-.553,1.372-.81,2.021a.776.776,0,0,1-.653.488c-1.016.17-2.031.344-3.048.508a1.148,1.148,0,0,1-1.311-.732c-.387-.865-.387-.865.529-1.078l4.97-1.16c.08-.019.164-.025.323-.048" transform="translate(-92.191 -19.351)" fill="#fff"></path><path id="Path_39348" data-name="Path 39348" d="M113.831,9.441l-4.154.96c-.753.174-1.511.328-2.257.528-.332.089-.366-.044-.342-.3a1.4,1.4,0,0,1,.245-.723,10.854,10.854,0,0,1,1.316-1.354.678.678,0,0,1,.487-.129c.975,0,1.951-.021,2.926.009.711.022,1.142.574,1.779,1.014" transform="translate(-89.13 -7.002)" fill="#fff"></path><path id="Path_39349" data-name="Path 39349" d="M124.949,64.525c0,.227,0,.385,0,.542-.005.444.15,1-.06,1.3-.246.355-.811.49-1.315.762,0-.653,0-1.243,0-1.834,0-.1.088-.136.166-.174.383-.189.765-.38,1.208-.6" transform="translate(-102.865 -53.712)" fill="#fff"></path><path id="Path_39350" data-name="Path 39350" d="M123.536,87.674c0-.592.006-1.12,0-1.647a.332.332,0,0,1,.216-.364c.374-.169.737-.362,1.167-.577,0,.611,0,1.173,0,1.735,0,.09-.011.173-.1.218-.414.207-.83.413-1.28.636" transform="translate(-102.831 -70.827)" fill="#fff"></path><path id="Path_39351" data-name="Path 39351" d="M113.179,132.885l.14.072a3.635,3.635,0,0,1,1.4,1.364c.181.3-.1.364-.194.526s-.221.121-.359.036c-.525-.323-1.052-.644-1.586-.951-.176-.1-.231-.174-.07-.342s.308-.378.46-.569c.051-.065.084-.155.209-.136" transform="translate(-93.577 -110.615)" fill="#fff"></path><path id="Path_39352" data-name="Path 39352" d="M123.523,49.622c0-.541.013-1.012-.006-1.483-.009-.23.094-.3.291-.321.353-.046.7-.107,1.094-.167,0,.381-.005.749,0,1.118a.255.255,0,0,1-.182.254c-.382.186-.76.379-1.2.6" transform="translate(-102.819 -39.666)" fill="#fff"></path><path id="Path_39353" data-name="Path 39353" d="M114.861,149.852c.3.178.6.359.911.532a.226.226,0,0,1,.108.318,2.948,2.948,0,0,1-.359.789l-.731-1.57.071-.069" transform="translate(-95.554 -124.741)" fill="#fff"></path><path id="Path_39354" data-name="Path 39354" d="M22.4,119.494c-.584,0-1.083-.008-1.581,0-.2,0-.263-.053-.274-.263-.055-1.12-.062-1.12,1.051-1.12h1.26a5.189,5.189,0,0,1-.907-2.258c-.056-.378.005-.566.44-.506.282.039.637-.08.837.054.158.106.108.5.188.749a2.953,2.953,0,0,0,2.026,2.147,3.159,3.159,0,0,1,1.873,1.5c.215.371.405.759.592,1.146a2.148,2.148,0,0,0,2.131,1.313c.861-.013.838,0,.871.869.016.406-.077.528-.5.521a4.405,4.405,0,0,1-2.323-.5,3.49,3.49,0,0,1-1.307-1.4c-.185-.356-.357-.719-.539-1.077a2.12,2.12,0,0,0-.837-.9,1.055,1.055,0,0,0-1.6.226,8.1,8.1,0,0,0-1.753,2.786c-.121.328-.262.4-.552.245a1.381,1.381,0,0,0-.2-.073c-.726-.242-.723-.24-.417-.966a10.568,10.568,0,0,1,1.53-2.5" transform="translate(-17.084 -96.011)" fill="#666"></path><path id="Path_39355" data-name="Path 39355" d="M17.931,175.572c-.622-.933-1.187-1.81-1.785-2.664-.2-.282-.163-.407.12-.588.814-.519.805-.532,1.327.253.532.8,1.077,1.593,1.591,2.406.18.284.3.253.5.042a2.2,2.2,0,0,0,.6-1.167,4.652,4.652,0,0,1,3.365-3.869c.422-.137.849-.265,1.262-.426.238-.093.347-.062.437.193.35.993.358.99-.642,1.331-.217.074-.434.149-.652.22a3.317,3.317,0,0,0-2.406,2.756,3.574,3.574,0,0,1-4.859,2.725,6.423,6.423,0,0,1-2.713-1.909c-.1-.106-.116-.187,0-.283a1.068,1.068,0,0,0,.091-.091c.724-.759.728-.764,1.469-.019a3.467,3.467,0,0,0,2.289,1.089" transform="translate(-11.654 -141.107)" fill="#666"></path></g></g></g></svg>