<svg xmlns="http://www.w3.org/2000/svg" xmlns:xlink="http://www.w3.org/1999/xlink" width="45" height="45" viewBox="0 0 45 45"><defs><clipPath id="clip-path"><rect id="Rectangle_8003" data-name="Rectangle 8003" width="45" height="45" transform="translate(-18161 -17248)" fill="#fff" stroke="#707070" stroke-width="1"></rect></clipPath></defs><g id="Mask_Group_19657" data-name="Mask Group 19657" transform="translate(18161 17248)" clip-path="url(#clip-path)"><path id="Path_41605" data-name="Path 41605" d="M-2279.733-200.122c-1.787-.217-3.572-.455-5.364-.624a7.275,7.275,0,0,1-4.049-1.649,24.551,24.551,0,0,0-4.7-3.288l5.532-5.543c1.2-1.2,2.424-2.389,3.6-3.618a2.891,2.891,0,0,0-1.387-4.861,2.9,2.9,0,0,0-2.865.9q-5.261,5.283-10.533,10.554a.687.687,0,0,1-.87.183,6.466,6.466,0,0,1-4.178-6.084c-.012-3.3,0-6.606,0-9.909,0-.846-.227-1.083-1.055-1.083q-5.705,0-11.41,0c-.83,0-1.051.231-1.052,1.083q0,4,0,8.007a32.277,32.277,0,0,1-.447,5.377,35.115,35.115,0,0,1-2.571,8.231,5.29,5.29,0,0,0,.875,5.945c2.207,2.471,5.311,3.671,8.617,2.376a12.347,12.347,0,0,1,6.582-.7,34.39,34.39,0,0,1,4.187,1.159,10.671,10.671,0,0,0,4.2.457,18.54,18.54,0,0,0,3.173-.678,23.981,23.981,0,0,1,8.049-.986c.732.041,1.468.016,2.2,0a4.9,4.9,0,0,0,4.725-3.216A1.375,1.375,0,0,0-2279.733-200.122Zm-8.621-17.189a2.275,2.275,0,0,1,1.6-.981,1.4,1.4,0,0,1,1.2,2.111,1.714,1.714,0,0,1-.864.858c-.27.073-.486-.389-.725-.612-.376-.352-.735-.723-1.1-1.092C-2288.31-217.1-2288.431-217.148-2288.354-217.311Zm-2.084,2.073c.323-.286.606-.786.949-.827.264-.031.6.5.9.789s.591.587.883.885a.812.812,0,0,1,.251.338,5.587,5.587,0,0,0-.555.424c-.652.637-.648.641-1.3-.007-.377-.377-.746-.763-1.135-1.127C-2290.638-214.944-2290.631-215.068-2290.438-215.239Zm-2.212,2.208c.885-.965.879-.97,1.784-.065q.459.459.916.921c.069.069.129.147.208.238-.113.123-.207.235-.31.338-.79.8-.791.8-1.569.022-.342-.341-.675-.691-1.029-1.02C-2292.825-212.759-2292.811-212.856-2292.651-213.031Zm-7.571,7.58c1.98-1.98,3.967-3.956,5.936-5.948.273-.276.43-.3.7,0,.446.495.928.958,1.41,1.418.191.182.238.288.019.5-1.743,1.722-3.469,3.463-5.208,5.191a3.592,3.592,0,0,1-2.517,1.039,4.111,4.111,0,0,1-1.6-.38c-.293-.135-.348-.241-.089-.482C-2301.107-204.543-2300.67-205-2300.221-205.451Zm20.093,7.383a3.392,3.392,0,0,1-3.034,1.708c-.851.017-1.7.042-2.552,0a23.588,23.588,0,0,0-7.852.964,22.307,22.307,0,0,1-2.971.672,8.933,8.933,0,0,1-3.849-.368,29.718,29.718,0,0,0-4.828-1.266,13.527,13.527,0,0,0-6.687.768c-2.834,1.124-5.045.221-7.019-1.677a4.147,4.147,0,0,1-.72-4.826,34.549,34.549,0,0,0,2.111-6.031,33.4,33.4,0,0,0,.949-7.873q.014-3.578-.005-7.155c0-.386.1-.513.5-.511q4.778.024,9.557,0c.42,0,.489.154.488.522q-.018,4.328,0,8.657a7.888,7.888,0,0,0,4.668,7.587c.281.139.3.228.075.442-.5.471-.981.954-1.45,1.451-.2.21-.324.2-.515,0-.339-.368-.7-.715-1.059-1.063a.782.782,0,0,0-1.149-.089.773.773,0,0,0,.084,1.115q2.841,2.855,5.7,5.7a.748.748,0,0,0,1.144.08c.314-.318.282-.747-.114-1.142s-.842-.8-1.265-1.2l.047-.164a5.664,5.664,0,0,0,4.422-2.324.773.773,0,0,1,1.136-.173,23.375,23.375,0,0,1,4.107,2.926,9.042,9.042,0,0,0,5.287,2.112c1.51.119,3.013.341,4.518.528C-2279.852-198.636-2279.826-198.573-2280.129-198.067Z" transform="translate(-15838.652 -17016.539)" fill="#666"></path></g></svg>