<svg xmlns="http://www.w3.org/2000/svg" xmlns:xlink="http://www.w3.org/1999/xlink" width="45" height="45" viewBox="0 0 45 45"><defs><clipPath id="clip-path"><rect id="Rectangle_8022" data-name="Rectangle 8022" width="45" height="45" transform="translate(-17967 -17253)" fill="#fff" stroke="#707070" stroke-width="1"></rect></clipPath><clipPath id="clip-path-2"><rect id="Rectangle_8021" data-name="Rectangle 8021" width="42.844" height="41.566" fill="none"></rect></clipPath></defs><g id="Mask_Group_19665" data-name="Mask Group 19665" transform="translate(17967 17253)" clip-path="url(#clip-path)"><g id="Group_20283" data-name="Group 20283" transform="translate(-17965.922 -17251.283)"><g id="Mask_Group_19664" data-name="Mask Group 19664" clip-path="url(#clip-path-2)"><path id="Path_39356" data-name="Path 39356" d="M0,22.037A7.314,7.314,0,0,0,.243,20.42,17.065,17.065,0,0,1,2.75,13.326a11.065,11.065,0,0,1,7.314-5.04,7.662,7.662,0,0,1,3.521.082,4.527,4.527,0,0,1,3.44,5.614,5.973,5.973,0,0,1-.187.769c-.115.342.071.425.345.444a.933.933,0,0,0,.675-.284,2.411,2.411,0,0,0,.871-1.783,7.336,7.336,0,0,0,0-1.086,3.463,3.463,0,0,1,1.239-2.965.641.641,0,0,0,.22-.685,7.006,7.006,0,0,1-.116-1.455c.006-2.173.009-4.346-.006-6.519,0-.31.067-.417.384-.384s.639.015.96.019a.852.852,0,0,1,.127.638c0,2.188,0,4.376,0,6.563a5.135,5.135,0,0,0,.44,2.155,1.677,1.677,0,0,0,1.232,1.01c.108-.172-.011-.265-.063-.366a4.564,4.564,0,0,1-.528-2.129c0-2.411,0-4.822,0-7.232a.856.856,0,0,1,.126-.638c.43,0,.977-.155,1.255.052s.076.779.078,1.191c.008,2.2,0,4.4.005,6.606a3.293,3.293,0,0,0,.891,2.235.365.365,0,0,0,.5.124c.309-.156.745-.2.922-.44.2-.268-.158-.611-.258-.924a6.642,6.642,0,0,1-.352-3.568A4.354,4.354,0,0,1,29.475,1.9a9.6,9.6,0,0,1,8.416,2.485,13.38,13.38,0,0,1,4.2,7.246,22.553,22.553,0,0,1-.879,14.255,14.881,14.881,0,0,1-4.053,5.7A7.714,7.714,0,0,1,32.8,33.4a5.1,5.1,0,0,1-5.364-3.347,11.873,11.873,0,0,1-.71-5.581A13.3,13.3,0,0,1,27.9,20.146a1.536,1.536,0,0,0-.382-1.623,1.462,1.462,0,0,0-1.618-.358,1.584,1.584,0,0,0-1.139,1.573c-.007,1.045,0,2.091,0,3.136q0,7.631,0,15.262c0,.691,0,.691-.667.725-.581.229-.793.088-.794-.554q-.008-5.393,0-10.785c0-2.592-.005-5.184,0-7.775a3.031,3.031,0,0,1,2.113-2.955,2.863,2.863,0,0,1,3.5,1.2c.154.254.259.267.459.058a1.487,1.487,0,0,0,.372-.863,6.206,6.206,0,0,1,1.046-2.744c.214-.166.393-.035.571.074.824.5.811.507.413,1.363a5.637,5.637,0,0,0,.116,5.114c.266.535.274.531-.214.862l-.208.14c-.565.376-.605.366-.947-.227a8.748,8.748,0,0,1-.7-1.893,9.377,9.377,0,0,0-1.683,5.441,10.38,10.38,0,0,0,.559,3.941,4.036,4.036,0,0,0,2.038,2.375,3.51,3.51,0,0,0,1.785.329,6.288,6.288,0,0,0,4.014-1.753,15.69,15.69,0,0,0,4.59-9.3,21.427,21.427,0,0,0,.248-4.119,19.027,19.027,0,0,0-1.845-7.95,10.369,10.369,0,0,0-5.1-4.971,10.714,10.714,0,0,0-1.185-.406,8.153,8.153,0,0,0-2.4-.285,6.16,6.16,0,0,0-2.058.494A2.91,2.91,0,0,0,27.152,6.85,7.56,7.56,0,0,0,29.473,11.5a3.537,3.537,0,0,0,.685.594.37.37,0,0,1,.081.623c-.151.181-.254.393-.395.581-.187.252-.4.21-.617.051-.2-.144-.315-.1-.427.11a2.8,2.8,0,0,1-2.593,1.525,7.231,7.231,0,0,0-2.023.281,4,4,0,0,0-1.747,1.023,3.063,3.063,0,0,0-.908,2.215q.016,11.122,0,22.243c0,.258.067.535-.129.763l-1.331,0a.769.769,0,0,1-.136-.592q0-7.509,0-15.017c.038-1,.02-2,.005-3-.008-.526-.293-.84-.883-1.024a7.24,7.24,0,0,0-2.3-.306,3.338,3.338,0,0,1-2.032-.639,2.764,2.764,0,0,1-.781-.855c-.123-.219-.195-.447-.551-.225-.339.212-.416-.193-.582-.369-.5-.775-.555-.66.214-1.235a2.162,2.162,0,0,0,.243-.222,7.618,7.618,0,0,0,2.4-4.739,2.908,2.908,0,0,0-1.213-2.96,5.707,5.707,0,0,0-3.714-.662,8.671,8.671,0,0,0-4.7,2.1,12.134,12.134,0,0,0-3.736,5.97,21.057,21.057,0,0,0-.792,4.641,21.074,21.074,0,0,0,.8,7.681,14.778,14.778,0,0,0,4,6.613,6.479,6.479,0,0,0,4.03,1.733,3.6,3.6,0,0,0,3.475-2.031,8.1,8.1,0,0,0,.854-3.42,11.631,11.631,0,0,0-.835-5.277A5.485,5.485,0,0,0,13,26.3a8.366,8.366,0,0,1-1.189,2.9c-.342.528-.455.551-.948.188q-.1-.074-.2-.151c-.416-.325-.446-.431-.163-.861A6.527,6.527,0,0,0,11.583,25a6.416,6.416,0,0,0-.906-3.55c-.288-.492-.286-.551.18-.868.069-.047.139-.092.209-.138.577-.381.589-.379.952.212a8.259,8.259,0,0,1,1.059,3.263c.033.358.317.539.559.742.094.079.14-.031.19-.093a3.017,3.017,0,0,1,4.8-.582,2.98,2.98,0,0,1,.906,2.22q.007,7.357,0,14.715a.779.779,0,0,1-.132.595c-.43,0-.977.155-1.255-.051s-.077-.779-.078-1.19q-.009-7.022-.005-14.045a1.628,1.628,0,0,0-1.981-1.688,1.211,1.211,0,0,0-.979.695,1.85,1.85,0,0,0-.077,1.629,12.321,12.321,0,0,1,.341,9.623,4.983,4.983,0,0,1-5.19,3.351,8.129,8.129,0,0,1-5.47-2.717A17.8,17.8,0,0,1,.231,27.336,5.413,5.413,0,0,0,0,25.884v-.5c.052-.046.041-.108.043-.167s.008-.121-.043-.167v-.5a3.236,3.236,0,0,0,0-1.171v-.335c.056-.052.039-.121.043-.186s0-.1,0-.149,0-.1,0-.149.013-.133-.043-.185Z" transform="translate(0 0)" fill="#666"></path><path id="Path_39357" data-name="Path 39357" d="M0,209.141a1.746,1.746,0,0,1,0,1.171Z" transform="translate(0 -185.765)" fill="#0a0a0a"></path><path id="Path_39358" data-name="Path 39358" d="M0,200.162c.1.02.08.1.07.164q-.032.061-.07,0Z" transform="translate(0 -177.79)" fill="#949494"></path><path id="Path_39359" data-name="Path 39359" d="M0,201.63a.452.452,0,0,1,.07,0c0,.055,0,.111,0,.166q-.031.063-.07,0Z" transform="translate(0 -179.091)" fill="#767676"></path><path id="Path_39360" data-name="Path 39360" d="M0,203.119c.023,0,.046,0,.07,0q0,.084,0,.168-.032.062-.071,0Z" transform="translate(0 -180.412)" fill="#585858"></path><path id="Path_39361" data-name="Path 39361" d="M0,204.624l.071,0c.013.072.007.136-.071.171Z" transform="translate(0 -181.751)" fill="#464646"></path><path id="Path_39362" data-name="Path 39362" d="M0,224.106c.079.034.083.1.07.172-.026.034-.049.03-.07,0Z" transform="translate(0 -199.058)" fill="#4d4d4d"></path><path id="Path_39363" data-name="Path 39363" d="M0,225.6l.07,0c.01.069.023.139-.07.163Z" transform="translate(0 -200.387)" fill="#696969"></path><path id="Path_39364" data-name="Path 39364" d="M200.936,117.733a7.788,7.788,0,0,0-1.077,3.217c-.04.424-.513.515-.72.886a2.8,2.8,0,0,0-1.915-1.719,2.977,2.977,0,0,0-3.733,2.794c-.021,6.314-.008,12.628-.015,18.943,0,.237.064.326.3.3a2.437,2.437,0,0,1,.375.01q0,.656,0,1.311c-.528.118-.612.49-.555.954a.466.466,0,0,1-.111.388h-2.018c0-7.644.015-15.289,0-22.933a3.331,3.331,0,0,1,1.855-3.071,4.9,4.9,0,0,1,2.61-.614,2.834,2.834,0,0,0,3.012-1.9c.351-.007.526.779.969.163a8.317,8.317,0,0,0,1,1.123.123.123,0,0,1,.027.15" transform="translate(-170.064 -103.299)" fill="#fff"></path><path id="Path_39365" data-name="Path 39365" d="M192.863.493c0,2.561.008,5.122-.006,7.682a4.535,4.535,0,0,0,.77,2.678.9.9,0,0,1,.066.15,1.757,1.757,0,0,1-1.756-1.173,5.913,5.913,0,0,1-.417-2.281q.007-3.528,0-7.056h1.342" transform="translate(-170.114 -0.438)" fill="#fff"></path><path id="Path_39366" data-name="Path 39366" d="M167.017,215.692c0,.836.012,1.671.013,2.507q0,6.6,0,13.208h-.672c0-4.972-.011-9.944.012-14.916a3.574,3.574,0,0,0-.921-2.637c.189-.139.344-.016.491.077a2.148,2.148,0,0,1,1.075,1.761" transform="translate(-146.959 -189.897)" fill="#fff"></path><path id="Path_39367" data-name="Path 39367" d="M209.52,360.762c0-.208-.005-.416-.005-.624,0-.684,0-.684.671-.718.667.034.667.034.667.722,0,.629,0,.63-.624.629-.236,0-.473-.006-.709-.009" transform="translate(-186.097 -319.248)" fill="#666"></path><path id="Path_39368" data-name="Path 39368" d="M41.943,111.8a3.629,3.629,0,0,1-3.529,2.073,4.749,4.749,0,0,1-2.07-1.285,13.979,13.979,0,0,1-2.628-3.389,17.519,17.519,0,0,1-2.113-6.042c-.03-.195-.075-.391.126-.531a.361.361,0,0,1,.074-.038c.642-.218.629-.216.538-.913a16.027,16.027,0,0,1,1.422-8.993,13.361,13.361,0,0,1,1.056-1.945.291.291,0,0,0-.105-.482c-.048-.028.01.01-.035-.023-.582-.421-.577-.418-.971.186-.411.631-.695,1.333-1.1,1.966-.324.017-.185-.213-.152-.335a6.294,6.294,0,0,1,.328-.857,12.169,12.169,0,0,1,3.6-4.893,7.632,7.632,0,0,1,2.374-1.358,5.373,5.373,0,0,1,3.84.707,1.066,1.066,0,0,1,.234.727,1.617,1.617,0,0,0,0,.7,4.973,4.973,0,0,1-.292,1.293,17.318,17.318,0,0,0-.966,3.477,6.577,6.577,0,0,1-.064.661.968.968,0,0,0-.024.554.677.677,0,0,1-.139.411c-.066.067-.128.14-.2.2-.2.167-.5.3-.568.5s.264.4.349.645A1.681,1.681,0,0,1,40,96.086c-.364-.5-.364-.5-.9-.127s-.513.357-.222.914a6.558,6.558,0,0,1-.311,7.028c-.177.275-.148.4.109.545a2.334,2.334,0,0,1,.265.2c.485.372.485.372.844-.128.222,0,.3.185.388.336a10.7,10.7,0,0,1,1.132,2.774,17.736,17.736,0,0,1,.607,3.194.725.725,0,0,0,.021.483.614.614,0,0,1,.009.5" transform="translate(-28.048 -75.379)" fill="#fff"></path><path id="Path_39369" data-name="Path 39369" d="M272.366,30.161a8.658,8.658,0,0,1,3.64,1.952,12.337,12.337,0,0,1,3.9,6.8,21.3,21.3,0,0,1-.853,13.234,14.835,14.835,0,0,1-2.979,4.552A6.64,6.64,0,0,1,271.6,58.85a1.726,1.726,0,0,1-.938-.66,6.5,6.5,0,0,1-1.484-3.445,5.342,5.342,0,0,1,.439-2.406,8.276,8.276,0,0,1,2.8-4.019.5.5,0,0,0,.169-.683,6.433,6.433,0,0,1,.286-5.681c.139-.258.13-.412-.142-.573a3.22,3.22,0,0,1-1.627-2.8,10.625,10.625,0,0,0-.594-3.061,4.458,4.458,0,0,1,.853-4.424,7.953,7.953,0,0,1,.558-.677c.124-.125.236-.283.45-.256" transform="translate(-239.067 -26.788)" fill="#fff"></path><path id="Path_39370" data-name="Path 39370" d="M255.941,27.676a5.247,5.247,0,0,0-2.012,3.954,9.783,9.783,0,0,0,.57,2.422,6.754,6.754,0,0,1,.263,1.72,3.3,3.3,0,0,0,1.8,3.146c.195.1.215.187.1.385a6.374,6.374,0,0,0-.329,5.993.349.349,0,0,1-.139.509,8.656,8.656,0,0,0-3.342,5.979,4.683,4.683,0,0,0,.583,2.444,4.618,4.618,0,0,0,1.735,2.135,3.844,3.844,0,0,1-4-2.914,10.206,10.206,0,0,1-.5-3.855A5.48,5.48,0,0,1,252,47.1a4.677,4.677,0,0,1,.673-.787.926.926,0,0,1,.567-.308c.329.515.329.515.862.157s.536-.362.26-.95a5.727,5.727,0,0,1,.138-5.447c.172-.315.131-.461-.164-.6s-.466-.44-.819-.434a3.081,3.081,0,0,1-1.026-1.273c.1-.3.507-.523.425-.8-.072-.242-.439-.394-.672-.589a1.831,1.831,0,0,1-.166-.181.948.948,0,0,1-.142-.473.743.743,0,0,0-.021-.513c-.182-.749-.4-1.487-.633-2.221a1.652,1.652,0,0,1-.059-.491,1.252,1.252,0,0,0-.05-.418,3.459,3.459,0,0,1,.542-2.384,12.493,12.493,0,0,1,1.293-1.733.9.9,0,0,1,.408-.278,6.3,6.3,0,0,1,2.527.293" transform="translate(-222.642 -24.303)" fill="#fff"></path><path id="Path_39371" data-name="Path 39371" d="M14.241,103.349c-.156.247-.007.495.033.724a17.3,17.3,0,0,0,2.51,6.473,11.044,11.044,0,0,0,3.25,3.462c.292.185.6.342.9.513a6.771,6.771,0,0,1-4.675-2.288,16.293,16.293,0,0,1-4.111-8.961,21.929,21.929,0,0,1,.768-9.987,11.3,11.3,0,0,1,5-6.558,7.607,7.607,0,0,1,3.366-1.138,10.487,10.487,0,0,1-1.265.708,11.776,11.776,0,0,0-4.75,5.933c-.1.259-.312.5-.217.819.109.174,0,.325-.062.472a18.2,18.2,0,0,0-1.248,4.841,17.476,17.476,0,0,0,.075,4.5c.039.29.222.384.429.491" transform="translate(-10.569 -76.023)" fill="#fff"></path><path id="Path_39372" data-name="Path 39372" d="M139.032,91.461c1.186,1.862,2.75,1.938,4.569,1.493a6.6,6.6,0,0,0,1.632-.618c.181-.1.264-.066.407.086a1.293,1.293,0,0,1,.208,1.567,1.33,1.33,0,0,1-1.278.779,8.733,8.733,0,0,0-2.95.482,5.019,5.019,0,0,0-3.169,3.513,2.158,2.158,0,0,0-.061.578q0,1.274,0,2.547c-.146.073-.248-.03-.354-.07a7.893,7.893,0,0,0-2.989-.471,1.793,1.793,0,0,1-1.806-1.33.523.523,0,0,1,.093-.539,7.877,7.877,0,0,0,1.125-1.7c.094-.193.185-.213.386-.136a2.01,2.01,0,0,0,2.041-.345,3.725,3.725,0,0,0,1.5-2.945c.018-.473.012-.947,0-1.42a1.97,1.97,0,0,1,.643-1.469" transform="translate(-118.319 -81.238)" fill="#fff"></path><path id="Path_39373" data-name="Path 39373" d="M121.079,184.261a2.672,2.672,0,0,0-1.145-1.692.744.744,0,0,0-.421-.146,3.2,3.2,0,0,0-2.5-.771,2.748,2.748,0,0,0-2.106,1.445c-.234.1-.245-.1-.293-.23a4.118,4.118,0,0,1-.1-.782,6.915,6.915,0,0,0-.686-2.087.481.481,0,0,1,.151-.71,5.528,5.528,0,0,0,.678-.674c.089-.1.156-.241.331-.2a3.3,3.3,0,0,0,3.056,1.516,5.678,5.678,0,0,1,2.132.319,1.142,1.142,0,0,1,.917,1.3c0,.9-.008,1.808-.013,2.711" transform="translate(-101.02 -158.465)" fill="#fff"></path><path id="Path_39374" data-name="Path 39374" d="M107.182,243.456l-.105-.511a.607.607,0,0,1,0-.4,21.752,21.752,0,0,0-.824-3.842,7.414,7.414,0,0,0-1.225-2.526,8.5,8.5,0,0,0,1.183-3.09,4.091,4.091,0,0,1,.865,1.258,11.324,11.324,0,0,1,.966,5.973,7.224,7.224,0,0,1-.858,3.143" transform="translate(-93.286 -207.031)" fill="#fff"></path><path id="Path_39375" data-name="Path 39375" d="M244.106,35.561c.018.173.114.336.074.517a7.291,7.291,0,0,1-2.4-4.944c-.147-1.961,1.044-3.24,3.116-3.512.206-.027.414-.038.622-.057a11.75,11.75,0,0,0-1.555,1.961,3.672,3.672,0,0,0-.612,2.447c.093.126-.021.292.08.417a6.079,6.079,0,0,0,.392,1.581c.077.366.193.73.281,1.1a.724.724,0,0,1,0,.492" transform="translate(-214.746 -24.485)" fill="#fff"></path><path id="Path_39376" data-name="Path 39376" d="M119.034,99.739l.067-.417a.828.828,0,0,1,0-.489,10.53,10.53,0,0,1,.8-3.58,10.491,10.491,0,0,0,.535-1.955,1.529,1.529,0,0,1,0-.654l-.161-.731a2.814,2.814,0,0,1,1.232,2.831,7.394,7.394,0,0,1-2.478,4.995" transform="translate(-105.73 -81.64)" fill="#fff"></path><path id="Path_39377" data-name="Path 39377" d="M253.367,177.43a8.13,8.13,0,0,0-2.564,3.589,9.3,9.3,0,0,1,1.84-5.7,8.775,8.775,0,0,0,.724,2.108" transform="translate(-222.771 -155.726)" fill="#fff"></path><path id="Path_39378" data-name="Path 39378" d="M108.957,174.491a7.639,7.639,0,0,1-1.114,1.1c-.134.091-.086.183-.032.283a6.607,6.607,0,0,1,.827,2.79c.009.171-.037.437.239.513-.045.258-.128.291-.339.1a1.589,1.589,0,0,1-.625-1.141,7.9,7.9,0,0,0-.969-2.888,4.153,4.153,0,0,0,.932-1.26,2.16,2.16,0,0,1,.2.259c.091.16.2.186.325.056.329-.353.46-.145.555.185" transform="translate(-94.991 -154.544)" fill="#fff"></path><path id="Path_39379" data-name="Path 39379" d="M27.036,141.5c-.249.036-.456.147-.523-.3a17.781,17.781,0,0,1,1.258-9.807c.027-.064.048-.131.071-.2a21.4,21.4,0,0,1,1.361-2.484c.132-.2.229-.23.416-.083.262.205.675.34.771.6.088.237-.278.53-.436.8a16.281,16.281,0,0,0-2.1,11c.035.226,0,.339-.242.362-.193.018-.382.07-.574.106" transform="translate(-23.365 -114.17)" fill="#666"></path><path id="Path_39380" data-name="Path 39380" d="M67.466,281.291a3.337,3.337,0,0,1-.047.453c-.187,1.13-.815.9-1.444.441a5.264,5.264,0,0,1-1.356-1.608,7.494,7.494,0,0,1-1.043-2.213,2.15,2.15,0,0,1-.04-.287c-.03-.363,0-.73.36-.909a.859.859,0,0,1,.923.221,8.225,8.225,0,0,1,2.354,2.66,2.469,2.469,0,0,1,.293,1.243" transform="translate(-56.427 -246.131)" fill="#fff"></path><path id="Path_39381" data-name="Path 39381" d="M130.908,98.453q0,.327,0,.655a.656.656,0,0,1,0-.655" transform="translate(-116.197 -87.449)" fill="#fff"></path><path id="Path_39382" data-name="Path 39382" d="M118.949,153.825q0,.245,0,.489a.387.387,0,0,1,0-.489" transform="translate(-105.576 -136.632)" fill="#fff"></path><path id="Path_39383" data-name="Path 39383" d="M122.716,317.709q0,.2,0,.4a.289.289,0,0,1,0-.4" transform="translate(-108.929 -282.199)" fill="#fa9b9e"></path><path id="Path_39384" data-name="Path 39384" d="M330.735,86.187a25.408,25.408,0,0,1-.234,2.925c-.04.288-.128.422-.445.327-.29-.087-.684-.042-.864-.223s.027-.548.062-.833a18.759,18.759,0,0,0-1.358-9.72c-.092-.217-.065-.3.152-.406.962-.456.956-.463,1.335.517a20.5,20.5,0,0,1,1.353,7.412" transform="translate(-291.203 -69.246)" fill="#666"></path><path id="Path_39385" data-name="Path 39385" d="M311.622,218.24a5.433,5.433,0,0,1-.507,1.528,7.235,7.235,0,0,1-2.083,2.916,2.52,2.52,0,0,1-1.283.441c-.517.065-.845-.384-.782-.966a3.361,3.361,0,0,1,.895-1.974,13.6,13.6,0,0,1,2.554-2.321,2.6,2.6,0,0,1,.482-.243c.5-.186.737-.01.724.62" transform="translate(-272.651 -193.235)" fill="#fff"></path><path id="Path_39386" data-name="Path 39386" d="M262.667,95.185l0-.492a.377.377,0,0,1,0,.492" transform="translate(-233.307 -84.109)" fill="#fff"></path><path id="Path_39387" data-name="Path 39387" d="M255.96,67.421c-.14-.117-.064-.276-.081-.417.137.118.06.277.081.417" transform="translate(-227.274 -59.515)" fill="#fff"></path></g></g></g></svg>