<svg xmlns="http://www.w3.org/2000/svg" xmlns:xlink="http://www.w3.org/1999/xlink" width="45" height="45" viewBox="0 0 45 45"><defs><clipPath id="clip-path"><rect id="Rectangle_8001" data-name="Rectangle 8001" width="45" height="45" transform="translate(-17931 -17650)" fill="#fff" stroke="#707070" stroke-width="1"></rect></clipPath><clipPath id="clip-path-2"><rect id="Rectangle_8000" data-name="Rectangle 8000" width="43.482" height="36.461" fill="none"></rect></clipPath></defs><g id="Mask_Group_19654" data-name="Mask Group 19654" transform="translate(17931 17650)" clip-path="url(#clip-path)"><g id="Group_20269" data-name="Group 20269" transform="translate(-17930.242 -17645.73)"><g id="Group_20268" data-name="Group 20268" clip-path="url(#clip-path-2)"><path id="Path_39279" data-name="Path 39279" d="M0,10.979A8.889,8.889,0,0,0,.323,9.474,12.047,12.047,0,0,1,10.876.2a34.164,34.164,0,0,1,8.217.092c5.971.966,9.979,4.4,12.067,10.069a8.256,8.256,0,0,1,.494,3.667c-.023.244.052.3.264.276a.938.938,0,0,1,1,.553c.173.307.4.582.572.891a.582.582,0,0,0,.668.339c.333-.034.325-.271.4-.458.379-.942.737-1.892,1.118-2.833a.418.418,0,0,0-.09-.517,2,2,0,0,1,.1-2.824,2.024,2.024,0,0,1,2.928,2.79.388.388,0,0,0-.064.484c.19.409.348.833.537,1.242.058.126.051.319.271.334s.226-.179.294-.3A2.031,2.031,0,1,1,42.1,16.873a1.981,1.981,0,0,1-2.441-.994.442.442,0,0,0-.518-.3.877.877,0,0,1-1.053-.679c-.206-.584-.478-1.145-.725-1.714-.048-.11-.068-.246-.246-.243s-.193.149-.236.256c-.405,1.023-.8,2.051-1.21,3.069-.087.215-.011.321.122.468a1.976,1.976,0,0,1,.3,2.284,2.023,2.023,0,0,1-3.77-.43,1.933,1.933,0,0,1,.188-1.475,1.459,1.459,0,0,0,.145-.256,4.775,4.775,0,0,0-.865-1.269c-.2-.013-.413-.1-.5.218a9.954,9.954,0,0,1-1.4,2.788.8.8,0,0,0,.021,1.024c.6.9,1.171,1.833,1.745,2.756a1.986,1.986,0,0,1-.813,3c-.622.332-1.246.661-1.875.981a.8.8,0,0,0-.455.564q-.42,1.705-.885,3.4a2.684,2.684,0,0,1-3.184,2.049c-.348-.056-.693-.135-1.041-.2a.694.694,0,0,1-.662-.74.585.585,0,0,1,.634-.649,2.892,2.892,0,0,1,.543.065c.233.06.47.1.706.146a1.343,1.343,0,0,0,1.63-.936c.289-.888.467-1.807.723-2.7.074-.258.131-.521.2-.782a2.042,2.042,0,0,1,1.186-1.456c.595-.264,1.146-.615,1.727-.908.6-.3.687-.633.33-1.2-.512-.814-1.007-1.638-1.537-2.441-.1-.153-.191-.314-.289-.469a1.773,1.773,0,0,1,.014-2.033,14.2,14.2,0,0,0,1.18-2.156,6.9,6.9,0,0,0,.185-4.733,13.448,13.448,0,0,0-3.7-5.994A12.768,12.768,0,0,0,22.2,2.559,13.765,13.765,0,0,0,16.822,1.5c-1.57.015-3.141-.013-4.71.007A10.532,10.532,0,0,0,4.626,4.6a10.356,10.356,0,0,0-3.108,6.038,10.644,10.644,0,0,0,2.351,8.493c.679.851,1.372,1.692,2.035,2.556a3.761,3.761,0,0,1,.691,3.243Q5.509,29.97,4.439,35.014a1.758,1.758,0,0,1-.277.835c-.08.163-.109.353-.271.469a.61.61,0,0,1-.713.051.675.675,0,0,1-.281-.815q.344-1.636.7-3.271.826-3.849,1.655-7.7a2.4,2.4,0,0,0-.512-2.141c-.644-.788-1.262-1.6-1.906-2.384A12.364,12.364,0,0,1,.089,13.739c-.01-.077.023-.176-.089-.212V11.574a.11.11,0,0,0,0-.17Z" transform="translate(0 -0.001)" fill="#666"></path><path id="Path_39280" data-name="Path 39280" d="M0,100.474c.112.057.088.113,0,.17Z" transform="translate(0 -89.07)" fill="#4f4f4f"></path><path id="Path_39281" data-name="Path 39281" d="M14.1,46.574c.352-1.686.7-3.373,1.057-5.058.428-2.017.873-4.031,1.292-6.05a3.5,3.5,0,0,0-.709-2.994c-.753-.955-1.526-1.9-2.268-2.86a10.88,10.88,0,0,1,6.8-17.349,9.917,9.917,0,0,1,1.688-.155c1.783,0,3.567-.027,5.35.012a11.992,11.992,0,0,1,4.884,1.09,9.234,9.234,0,0,1,2.4,1.8,13.723,13.723,0,0,1,2.392,3.07,12.244,12.244,0,0,1,1.639,4.432,7.706,7.706,0,0,1-.937,4.954c-.257.44-.524.874-.784,1.312a1.08,1.08,0,0,0,.006,1.2c.585.953,1.19,1.892,1.785,2.839a1.5,1.5,0,0,1-.666,2.439c-.566.291-1.117.611-1.691.888a1.433,1.433,0,0,0-.805,1.031c-.218.966-.5,1.916-.74,2.878a3.619,3.619,0,0,1-.528,1.288c-.1.137-.188.287-.372.329-.112-.009-.226-.012-.337-.027-.5-.068-.667.032-.865.517a8.98,8.98,0,0,0-1.656-.338c-.189-.6-.685-.7-1.215-.788-.559-.088-1.116-.195-1.666-.322-.568-.132-1.082-.188-1.483.339a4.358,4.358,0,0,1-1.084-.157c-.42-.059-.541,0-.622.424-.3,1.552-.571,3.11-.869,4.662-.058.305.061.413.357.4a6.975,6.975,0,0,1,.846.006c.134.011.323-.032.342.2L14.1,46.574" transform="translate(-9.934 -10.726)" fill="#fff"></path><path id="Path_39282" data-name="Path 39282" d="M139.423,262.578c.246-.5.436-.592.971-.487.9.175,1.8.343,2.691.525.539.11.647.25.671.8a.671.671,0,0,1-.868.459c-.662-.142-1.335-.233-1.994-.387-.278-.065-.336.035-.377.262-.257,1.43-.522,2.859-.783,4.289-.091.5-.3.742-.671.732a.615.615,0,0,1-.624-.526,1.387,1.387,0,0,1-.037-.707c.286-1.526.566-3.053.853-4.578a.506.506,0,0,1,.167-.375" transform="translate(-122.669 -232.31)" fill="#666"></path><path id="Path_39283" data-name="Path 39283" d="M125.975,264.591q-.453,2.517-.9,5.033c-.037.207-.052.418-.078.627l-.077-.066a3.715,3.715,0,0,0-1.365-.076c-.281-.01-.395-.03-.328-.367.261-1.317.488-2.641.729-3.962.063-.344.152-.684.2-1.029.053-.405.3-.471.634-.406.4.078.8.163,1.192.246" transform="translate(-109.221 -234.323)" fill="#fff"></path><path id="Path_39284" data-name="Path 39284" d="M197.745,50.349a4.04,4.04,0,0,0,.824-1.737c.226-.944.482-1.88.712-2.823a1.522,1.522,0,0,1,.835-1.055c.63-.319,1.253-.649,1.877-.979a1.358,1.358,0,0,0,.538-2.091c-.618-.976-1.214-1.966-1.849-2.931a1.2,1.2,0,0,1,.025-1.417A12.41,12.41,0,0,0,202,34.9a8.426,8.426,0,0,0-.324-6.177,14.551,14.551,0,0,0-2.91-4.524,15.754,15.754,0,0,0-2.434-2.072c-.1-.07-.238-.1-.282-.243a11.562,11.562,0,0,1,3.3,1.946A13.374,13.374,0,0,1,204,31.039a6.833,6.833,0,0,1-.714,5.161c-.26.469-.544.925-.824,1.383a1.635,1.635,0,0,0,.023,1.872c.615.965,1.219,1.937,1.827,2.906.411.656.32.982-.376,1.35-.587.31-1.165.636-1.763.924a1.981,1.981,0,0,0-1.111,1.407c-.265,1.083-.553,2.16-.836,3.238a1.455,1.455,0,0,1-1.917,1.215c-.191-.036-.378-.1-.567-.145" transform="translate(-173.799 -19.4)" fill="#fff"></path><path id="Path_39285" data-name="Path 39285" d="M296.281,152.811a.762.762,0,0,1,.746.768.791.791,0,0,1-.778.747.766.766,0,0,1-.736-.779.744.744,0,0,1,.768-.736" transform="translate(-261.973 -135.467)" fill="#fff"></path><path id="Path_39286" data-name="Path 39286" d="M360,125.852a.76.76,0,1,1-1.519.005.76.76,0,0,1,1.519-.005" transform="translate(-317.796 -110.914)" fill="#fff"></path><path id="Path_39287" data-name="Path 39287" d="M321.662,90.335a.754.754,0,0,1-.745.763.73.73,0,0,1-.764-.732.749.749,0,0,1,.734-.772.773.773,0,0,1,.775.742" transform="translate(-283.816 -79.425)" fill="#fff"></path><path id="Path_39288" data-name="Path 39288" d="M34.616,45.2a6.525,6.525,0,0,1-.519-1.234.482.482,0,0,0-.339-.375.227.227,0,0,1,.157-.131.623.623,0,0,0,.441-.8,2.454,2.454,0,0,1,.1-1.09c.111-.445.281-.514.663-.257a4.487,4.487,0,0,0,2.854.773,3.6,3.6,0,0,0,1.154-.257.538.538,0,0,0,.389-.661.526.526,0,0,0-.731-.3,3.4,3.4,0,0,1-2.865-.28,1.487,1.487,0,0,1-.768-2.036,4.3,4.3,0,0,1,2.57-2.72,2.165,2.165,0,0,1,2.843,2.047,3.187,3.187,0,0,0,.166,1.083A2.127,2.127,0,0,0,42.671,40.3c.3,0,.595.01.891-.007a.457.457,0,0,0,.492-.428.491.491,0,0,0-.415-.555,3.161,3.161,0,0,0-.8-.051,1.121,1.121,0,0,1-1.218-1.218A3.327,3.327,0,0,0,39.609,34.9c-.455-.222-.468-.38-.053-.676a6.492,6.492,0,0,1,2.878-1.063,4.441,4.441,0,0,1,1.928.119.65.65,0,0,1,.546.734c-.019.4-.017.793,0,1.188A2.573,2.573,0,0,0,47.3,37.735a14.746,14.746,0,0,0,1.612.01.691.691,0,0,0,.209-.035.5.5,0,0,0,.409-.523.47.47,0,0,0-.473-.458c-.437-.043-.877-.014-1.315-.018a1.616,1.616,0,0,1-1.8-1.815c0-.325-.007-.651.006-.976a.4.4,0,0,1,.329-.435,2.588,2.588,0,0,1,1.543-.032,8.274,8.274,0,0,1,1.3.717,1.582,1.582,0,0,1,.577.551c.218.488.62.574,1.079.665A4.338,4.338,0,0,1,54.024,40.1a2,2,0,0,1-1.442.589c-.167.024-.338,0-.507.014-.306.018-.521.147-.53.481a.5.5,0,0,0,.49.535,3.793,3.793,0,0,0,1.587-.17,4.081,4.081,0,0,0,.81-.361.336.336,0,0,1,.284-.044.6.6,0,0,1,.158.659,2.477,2.477,0,0,1-1.323,1.772,2.086,2.086,0,0,1-.836.11c-1.868,0-3.736,0-5.6,0a.981.981,0,0,0-.951.427c-.192.2-.447.135-.681.159-.355.036-.642.167-.7.558a4.153,4.153,0,0,1-1.567,2.724,2.406,2.406,0,0,1-1.116.187,8.43,8.43,0,0,1-1.886-.254.543.543,0,0,1-.471-.6c.007-.438-.016-.877.007-1.315a2.123,2.123,0,0,1,2.22-2.132c.353,0,.707,0,1.06,0a.9.9,0,0,0,.451-.1.478.478,0,0,0,.273-.486.416.416,0,0,0-.37-.409,5.32,5.32,0,0,0-3.028.344,3.223,3.223,0,0,0-1.646,2.836c-.022.366.006.735-.008,1.1-.016.426-.111.51-.544.515a1.568,1.568,0,0,1-.5-.066A3.755,3.755,0,0,1,35.81,45.95a1.554,1.554,0,0,0-1.194-.752" transform="translate(-29.927 -29.352)" fill="#fff"></path><path id="Path_39289" data-name="Path 39289" d="M50.286,32.112a4.279,4.279,0,0,1-2.531.69c-.525-.019-.813-.246-.8-.661s.268-.615.791-.613a2.564,2.564,0,0,0,1.789-.5,2.946,2.946,0,0,1,.575-.728,1.039,1.039,0,0,0,.222-.87,3.494,3.494,0,0,0-1.685-2.57,2.2,2.2,0,0,0-1.316-.4.832.832,0,0,1-.821-.342A3.525,3.525,0,0,0,44.183,24.7c-.259-.067-.519-.128-.775-.207a3.593,3.593,0,0,0-1.432.02c-.232.03-.373.122-.351.408.03.394,0,.792.009,1.188a1.4,1.4,0,0,0,1.425,1.428c.509.014,1.019,0,1.528.007a.63.63,0,1,1,.044,1.258,10.574,10.574,0,0,1-2.075-.048A2.642,2.642,0,0,1,40.362,26.2c-.013-.453-.021-.907,0-1.358a.4.4,0,0,0-.327-.453,4.967,4.967,0,0,0-2.883.006,5.6,5.6,0,0,0-2.3,1.137c.067.174.235.152.352.206a3.324,3.324,0,0,1,2.078,3.047c.05,1.035.329,1.324,1.363,1.328a1.969,1.969,0,0,1,.715.054.586.586,0,0,1,.407.664.539.539,0,0,1-.509.536,4.96,4.96,0,0,1-1.48-.038,2.286,2.286,0,0,1-1.764-2.342,2.093,2.093,0,0,0-1.565-2.155,1.743,1.743,0,0,0-1.278.1,4.37,4.37,0,0,0-2.358,2.646,1.342,1.342,0,0,0,.745,1.866A3.2,3.2,0,0,0,34.3,31.7a.636.636,0,0,1,.87.284c.2.37.018.752-.454.916a4.432,4.432,0,0,1-4.014-.489c-.13-.083-.255-.174-.412-.282a2.55,2.55,0,0,0-.245,1.516c.064.6-.125.829-.724.892a.688.688,0,0,1-.536-.673,3.792,3.792,0,0,1,.62-2.743.42.42,0,0,0,.081-.316,4.691,4.691,0,0,1,2.345-4.534c.782-.541,1.518-1.113,2.254-1.713a6.609,6.609,0,0,1,6.393-1.34,2.463,2.463,0,0,0,1.2.076,6.077,6.077,0,0,1,5.659,1.62.526.526,0,0,0,.327.162,4.826,4.826,0,0,1,4.056,4.552,1.065,1.065,0,0,0,.253.68,2.784,2.784,0,0,1,.3,3.111,4.029,4.029,0,0,1-3.705,2.344c-1.357.053-2.717.024-4.075.006-.322,0-.4.084-.4.4.022.934.018,1.868.005,2.8a3.835,3.835,0,0,1-2.449,3.684c-.617.278-1.254.513-1.876.782a2.62,2.62,0,0,0-1.722,2.575c0,.609,0,1.217,0,1.826,0,.454-.211.725-.569.765s-.619-.189-.715-.667c-.009-.011-.026-.021-.027-.032-.106-1.437-.285-2.881.584-4.185a4.435,4.435,0,0,1,2.145-1.662c.539-.214,1.076-.433,1.609-.664a2.465,2.465,0,0,0,1.624-2.448,21.986,21.986,0,0,1,.031-2.205.232.232,0,0,1,.054-.157,4.762,4.762,0,0,1-4.244,3.3.527.527,0,0,0-.561.46,3.674,3.674,0,0,1-1.144,1.8,3.268,3.268,0,0,0-1.136,1.841.285.285,0,0,1-.125.212,22.176,22.176,0,0,0-.047,2.412c-.012.452.007.906,0,1.358a.6.6,0,0,1-.6.635.561.561,0,0,1-.636-.548,27.2,27.2,0,0,1,.078-4.448,3.887,3.887,0,0,1,1.38-2.324,2.727,2.727,0,0,0,.946-1.509c-.964-.06-1.845-.44-2.835-.432a4.657,4.657,0,0,1-3.85-2.29.646.646,0,0,1,.164-.906.746.746,0,0,1,.984.317A3.713,3.713,0,0,0,33.74,38.1c.319.035.453-.028.441-.39a9.185,9.185,0,0,1,.041-1.695,3.235,3.235,0,0,1,3.155-2.78c.467-.011.934-.011,1.4,0a.645.645,0,0,1,.707.628.658.658,0,0,1-.705.639c-.438.012-.877,0-1.316.006a1.977,1.977,0,0,0-2.011,1.936c-.026.508,0,1.019-.009,1.528,0,.156.023.265.2.31a6.318,6.318,0,0,0,3.1.155,1.113,1.113,0,0,1,.5-.2A2.971,2.971,0,0,0,41.513,35.5a.637.637,0,0,1,.111-.4.734.734,0,0,1,.833-.605c1.935.013,3.871,0,5.807.006a3,3,0,0,0,.922-.1A3.656,3.656,0,0,0,50.9,33.1a1.825,1.825,0,0,0,.19-1.633c-.258.284-.449.572-.8.646" transform="translate(-25.492 -20.303)" fill="#666"></path><path id="Path_39290" data-name="Path 39290" d="M88.906,149.564a2.459,2.459,0,0,1,.819-1.757,4.537,4.537,0,0,0,1.566-2.45c.046-.234.225-.183.363-.192a5.785,5.785,0,0,0,1.77-.392,4.379,4.379,0,0,0,2.713-3.017c.007.137.016.274.02.412s0,.283,0,.424c0,.608.01,1.216,0,1.823a2.552,2.552,0,0,1-1.588,2.4c-.625.291-1.274.53-1.911.8a3.919,3.919,0,0,0-2.549,3.828c0,.622-.008,1.243-.012,1.865a2.747,2.747,0,0,1-.963.061c-.246.009-.2-.183-.2-.331,0-1.016,0-2.031,0-3.047,0-.14-.013-.28-.019-.421" transform="translate(-78.815 -125.667)" fill="#fff"></path><path id="Path_39291" data-name="Path 39291" d="M157.85,36.895a3.9,3.9,0,0,1,3.175,1.557.723.723,0,0,0,.659.3,3.446,3.446,0,0,1,3.2,3.528c-.058.518-.51.846-.912,1.156a4.394,4.394,0,0,0-1-3.187,3.911,3.911,0,0,0-2.7-1.484c-.159-.016-.311,0-.388-.185a3.152,3.152,0,0,0-1.644-1.451c-.136-.071-.264-.156-.4-.235" transform="translate(-139.934 -32.707)" fill="#fff"></path><path id="Path_39292" data-name="Path 39292" d="M119.631,130.407a3.084,3.084,0,0,1-2.881,3.325c.22-.343.6-.538.819-.886a3.408,3.408,0,0,0,.6-1.423c.1-.909.4-1.04,1.252-1.015.07,0,.141,0,.211,0" transform="translate(-103.499 -115.604)" fill="#fff"></path><path id="Path_39293" data-name="Path 39293" d="M209.856,97.66l.8-.818c.669,1.184-.3,2.735-1.9,3.111a2.674,2.674,0,0,0,1.145-1.638,1.686,1.686,0,0,0-.044-.655" transform="translate(-185.062 -85.851)" fill="#fff"></path></g></g></g></svg>